%TF.GenerationSoftware,KiCad,Pcbnew,(6.0.5)*%
%TF.CreationDate,2023-02-27T08:13:59-05:00*%
%TF.ProjectId,UGV_Board,5547565f-426f-4617-9264-2e6b69636164,rev?*%
%TF.SameCoordinates,Original*%
%TF.FileFunction,Paste,Top*%
%TF.FilePolarity,Positive*%
%FSLAX46Y46*%
G04 Gerber Fmt 4.6, Leading zero omitted, Abs format (unit mm)*
G04 Created by KiCad (PCBNEW (6.0.5)) date 2023-02-27 08:13:59*
%MOMM*%
%LPD*%
G01*
G04 APERTURE LIST*
G04 Aperture macros list*
%AMRoundRect*
0 Rectangle with rounded corners*
0 $1 Rounding radius*
0 $2 $3 $4 $5 $6 $7 $8 $9 X,Y pos of 4 corners*
0 Add a 4 corners polygon primitive as box body*
4,1,4,$2,$3,$4,$5,$6,$7,$8,$9,$2,$3,0*
0 Add four circle primitives for the rounded corners*
1,1,$1+$1,$2,$3*
1,1,$1+$1,$4,$5*
1,1,$1+$1,$6,$7*
1,1,$1+$1,$8,$9*
0 Add four rect primitives between the rounded corners*
20,1,$1+$1,$2,$3,$4,$5,0*
20,1,$1+$1,$4,$5,$6,$7,0*
20,1,$1+$1,$6,$7,$8,$9,0*
20,1,$1+$1,$8,$9,$2,$3,0*%
G04 Aperture macros list end*
%ADD10RoundRect,0.250000X0.625000X-0.400000X0.625000X0.400000X-0.625000X0.400000X-0.625000X-0.400000X0*%
%ADD11R,1.473200X0.889000*%
%ADD12R,1.473200X3.149600*%
%ADD13RoundRect,0.250000X0.400000X0.625000X-0.400000X0.625000X-0.400000X-0.625000X0.400000X-0.625000X0*%
%ADD14R,3.200400X1.600200*%
%ADD15R,1.092200X1.803400*%
%ADD16R,1.041400X1.447800*%
%ADD17R,1.600200X3.200400*%
%ADD18R,1.498600X1.498600*%
%ADD19RoundRect,0.250000X-0.412500X-0.650000X0.412500X-0.650000X0.412500X0.650000X-0.412500X0.650000X0*%
G04 APERTURE END LIST*
D10*
%TO.C,R11*%
X137160000Y-81840000D03*
X137160000Y-78740000D03*
%TD*%
D11*
%TO.C,U2*%
X175475900Y-75971400D03*
X175475900Y-73660000D03*
X175475900Y-71348600D03*
D12*
X168948100Y-73660000D03*
%TD*%
D13*
%TO.C,R5*%
X196114000Y-108712000D03*
X193014000Y-108712000D03*
%TD*%
%TO.C,R3*%
X174270000Y-101092000D03*
X171170000Y-101092000D03*
%TD*%
%TO.C,R2*%
X174244000Y-106172000D03*
X171144000Y-106172000D03*
%TD*%
%TO.C,R1*%
X174270000Y-103632000D03*
X171170000Y-103632000D03*
%TD*%
D14*
%TO.C,U1*%
X142562520Y-62528430D03*
X142562520Y-65068430D03*
X142562520Y-67608430D03*
X142562520Y-70148430D03*
X142562520Y-72688430D03*
X142562520Y-75228430D03*
X142562520Y-77768430D03*
X142562520Y-80308430D03*
X142562520Y-82848430D03*
X142562520Y-85388430D03*
X142562520Y-87928430D03*
X142562520Y-90468430D03*
X142562520Y-93008430D03*
X142562520Y-95548430D03*
X142562520Y-98088430D03*
X142562520Y-100628430D03*
X142562520Y-103168430D03*
X142562520Y-105708430D03*
X142562520Y-108248430D03*
X142562520Y-110788430D03*
X161942720Y-110788430D03*
X161942720Y-108248430D03*
X161942720Y-105708430D03*
X161942720Y-103168430D03*
X161942720Y-100628430D03*
X161942720Y-98088430D03*
X161942720Y-95548430D03*
X161942720Y-93008430D03*
X161942720Y-90468430D03*
X161942720Y-87928430D03*
X161942720Y-85388430D03*
X161942720Y-82848430D03*
X161942720Y-80308430D03*
X161942720Y-77768430D03*
X161942720Y-75228430D03*
X161942720Y-72688430D03*
X161942720Y-70148430D03*
X161942720Y-67608430D03*
X161942720Y-65068430D03*
X161942720Y-62528430D03*
D15*
X149527200Y-62657970D03*
X154978040Y-62657970D03*
D16*
X149826920Y-65688190D03*
X154678320Y-65688190D03*
D17*
X149712620Y-111357390D03*
X152252620Y-111357390D03*
X154792620Y-111357390D03*
D18*
X152252620Y-65657710D03*
X153253380Y-62358250D03*
X151251860Y-62358250D03*
X149753260Y-69157830D03*
X149753260Y-71657190D03*
X149753260Y-74156550D03*
%TD*%
D13*
%TO.C,R6*%
X196114000Y-112268000D03*
X193014000Y-112268000D03*
%TD*%
%TO.C,R4*%
X196114000Y-105156000D03*
X193014000Y-105156000D03*
%TD*%
D10*
%TO.C,R12*%
X137160000Y-75184000D03*
X137160000Y-72084000D03*
%TD*%
D19*
%TO.C,C4*%
X171157500Y-98552000D03*
X174282500Y-98552000D03*
%TD*%
M02*
