%TF.GenerationSoftware,KiCad,Pcbnew,(6.0.5)*%
%TF.CreationDate,2023-02-27T08:13:59-05:00*%
%TF.ProjectId,UGV_Board,5547565f-426f-4617-9264-2e6b69636164,rev?*%
%TF.SameCoordinates,Original*%
%TF.FileFunction,Legend,Top*%
%TF.FilePolarity,Positive*%
%FSLAX46Y46*%
G04 Gerber Fmt 4.6, Leading zero omitted, Abs format (unit mm)*
G04 Created by KiCad (PCBNEW (6.0.5)) date 2023-02-27 08:13:59*
%MOMM*%
%LPD*%
G01*
G04 APERTURE LIST*
%ADD10C,0.150000*%
%ADD11C,0.120000*%
G04 APERTURE END LIST*
D10*
%TO.C,J6*%
X130730666Y-82735380D02*
X130730666Y-83449666D01*
X130683047Y-83592523D01*
X130587809Y-83687761D01*
X130444952Y-83735380D01*
X130349714Y-83735380D01*
X131635428Y-82735380D02*
X131444952Y-82735380D01*
X131349714Y-82783000D01*
X131302095Y-82830619D01*
X131206857Y-82973476D01*
X131159238Y-83163952D01*
X131159238Y-83544904D01*
X131206857Y-83640142D01*
X131254476Y-83687761D01*
X131349714Y-83735380D01*
X131540190Y-83735380D01*
X131635428Y-83687761D01*
X131683047Y-83640142D01*
X131730666Y-83544904D01*
X131730666Y-83306809D01*
X131683047Y-83211571D01*
X131635428Y-83163952D01*
X131540190Y-83116333D01*
X131349714Y-83116333D01*
X131254476Y-83163952D01*
X131206857Y-83211571D01*
X131159238Y-83306809D01*
%TO.C,SW1*%
X195770666Y-61364761D02*
X195913523Y-61412380D01*
X196151619Y-61412380D01*
X196246857Y-61364761D01*
X196294476Y-61317142D01*
X196342095Y-61221904D01*
X196342095Y-61126666D01*
X196294476Y-61031428D01*
X196246857Y-60983809D01*
X196151619Y-60936190D01*
X195961142Y-60888571D01*
X195865904Y-60840952D01*
X195818285Y-60793333D01*
X195770666Y-60698095D01*
X195770666Y-60602857D01*
X195818285Y-60507619D01*
X195865904Y-60460000D01*
X195961142Y-60412380D01*
X196199238Y-60412380D01*
X196342095Y-60460000D01*
X196675428Y-60412380D02*
X196913523Y-61412380D01*
X197104000Y-60698095D01*
X197294476Y-61412380D01*
X197532571Y-60412380D01*
X198437333Y-61412380D02*
X197865904Y-61412380D01*
X198151619Y-61412380D02*
X198151619Y-60412380D01*
X198056380Y-60555238D01*
X197961142Y-60650476D01*
X197865904Y-60698095D01*
X193509523Y-66104761D02*
X193652380Y-66152380D01*
X193890476Y-66152380D01*
X193985714Y-66104761D01*
X194033333Y-66057142D01*
X194080952Y-65961904D01*
X194080952Y-65866666D01*
X194033333Y-65771428D01*
X193985714Y-65723809D01*
X193890476Y-65676190D01*
X193700000Y-65628571D01*
X193604761Y-65580952D01*
X193557142Y-65533333D01*
X193509523Y-65438095D01*
X193509523Y-65342857D01*
X193557142Y-65247619D01*
X193604761Y-65200000D01*
X193700000Y-65152380D01*
X193938095Y-65152380D01*
X194080952Y-65200000D01*
X194414285Y-65152380D02*
X194652380Y-66152380D01*
X194842857Y-65438095D01*
X195033333Y-66152380D01*
X195271428Y-65152380D01*
X195414285Y-66247619D02*
X196176190Y-66247619D01*
X196414285Y-66152380D02*
X196414285Y-65152380D01*
X196747619Y-65866666D01*
X197080952Y-65152380D01*
X197080952Y-66152380D01*
X198128571Y-66057142D02*
X198080952Y-66104761D01*
X197938095Y-66152380D01*
X197842857Y-66152380D01*
X197700000Y-66104761D01*
X197604761Y-66009523D01*
X197557142Y-65914285D01*
X197509523Y-65723809D01*
X197509523Y-65580952D01*
X197557142Y-65390476D01*
X197604761Y-65295238D01*
X197700000Y-65200000D01*
X197842857Y-65152380D01*
X197938095Y-65152380D01*
X198080952Y-65200000D01*
X198128571Y-65247619D01*
X198557142Y-65152380D02*
X198557142Y-65961904D01*
X198604761Y-66057142D01*
X198652380Y-66104761D01*
X198747619Y-66152380D01*
X198938095Y-66152380D01*
X199033333Y-66104761D01*
X199080952Y-66057142D01*
X199128571Y-65961904D01*
X199128571Y-65152380D01*
X199366666Y-66247619D02*
X200128571Y-66247619D01*
X200366666Y-65628571D02*
X200700000Y-65628571D01*
X200842857Y-66152380D02*
X200366666Y-66152380D01*
X200366666Y-65152380D01*
X200842857Y-65152380D01*
X201271428Y-66152380D02*
X201271428Y-65152380D01*
X201842857Y-66152380D01*
X201842857Y-65152380D01*
%TO.C,J2*%
X133270666Y-113244380D02*
X133270666Y-113958666D01*
X133223047Y-114101523D01*
X133127809Y-114196761D01*
X132984952Y-114244380D01*
X132889714Y-114244380D01*
X133699238Y-113339619D02*
X133746857Y-113292000D01*
X133842095Y-113244380D01*
X134080190Y-113244380D01*
X134175428Y-113292000D01*
X134223047Y-113339619D01*
X134270666Y-113434857D01*
X134270666Y-113530095D01*
X134223047Y-113672952D01*
X133651619Y-114244380D01*
X134270666Y-114244380D01*
X132644190Y-115768380D02*
X132644190Y-114768380D01*
X132882285Y-114768380D01*
X133025142Y-114816000D01*
X133120380Y-114911238D01*
X133168000Y-115006476D01*
X133215619Y-115196952D01*
X133215619Y-115339809D01*
X133168000Y-115530285D01*
X133120380Y-115625523D01*
X133025142Y-115720761D01*
X132882285Y-115768380D01*
X132644190Y-115768380D01*
X134025142Y-115720761D02*
X133929904Y-115768380D01*
X133739428Y-115768380D01*
X133644190Y-115720761D01*
X133596571Y-115625523D01*
X133596571Y-115244571D01*
X133644190Y-115149333D01*
X133739428Y-115101714D01*
X133929904Y-115101714D01*
X134025142Y-115149333D01*
X134072761Y-115244571D01*
X134072761Y-115339809D01*
X133596571Y-115435047D01*
X134501333Y-115768380D02*
X134501333Y-114768380D01*
X134501333Y-115149333D02*
X134596571Y-115101714D01*
X134787047Y-115101714D01*
X134882285Y-115149333D01*
X134929904Y-115196952D01*
X134977523Y-115292190D01*
X134977523Y-115577904D01*
X134929904Y-115673142D01*
X134882285Y-115720761D01*
X134787047Y-115768380D01*
X134596571Y-115768380D01*
X134501333Y-115720761D01*
X135834666Y-115101714D02*
X135834666Y-115768380D01*
X135406095Y-115101714D02*
X135406095Y-115625523D01*
X135453714Y-115720761D01*
X135548952Y-115768380D01*
X135691809Y-115768380D01*
X135787047Y-115720761D01*
X135834666Y-115673142D01*
X136739428Y-115101714D02*
X136739428Y-115911238D01*
X136691809Y-116006476D01*
X136644190Y-116054095D01*
X136548952Y-116101714D01*
X136406095Y-116101714D01*
X136310857Y-116054095D01*
X136739428Y-115720761D02*
X136644190Y-115768380D01*
X136453714Y-115768380D01*
X136358476Y-115720761D01*
X136310857Y-115673142D01*
X136263238Y-115577904D01*
X136263238Y-115292190D01*
X136310857Y-115196952D01*
X136358476Y-115149333D01*
X136453714Y-115101714D01*
X136644190Y-115101714D01*
X136739428Y-115149333D01*
X137977523Y-115768380D02*
X137977523Y-114768380D01*
X137977523Y-115244571D02*
X138548952Y-115244571D01*
X138548952Y-115768380D02*
X138548952Y-114768380D01*
X139406095Y-115720761D02*
X139310857Y-115768380D01*
X139120380Y-115768380D01*
X139025142Y-115720761D01*
X138977523Y-115625523D01*
X138977523Y-115244571D01*
X139025142Y-115149333D01*
X139120380Y-115101714D01*
X139310857Y-115101714D01*
X139406095Y-115149333D01*
X139453714Y-115244571D01*
X139453714Y-115339809D01*
X138977523Y-115435047D01*
X140310857Y-115768380D02*
X140310857Y-115244571D01*
X140263238Y-115149333D01*
X140168000Y-115101714D01*
X139977523Y-115101714D01*
X139882285Y-115149333D01*
X140310857Y-115720761D02*
X140215619Y-115768380D01*
X139977523Y-115768380D01*
X139882285Y-115720761D01*
X139834666Y-115625523D01*
X139834666Y-115530285D01*
X139882285Y-115435047D01*
X139977523Y-115387428D01*
X140215619Y-115387428D01*
X140310857Y-115339809D01*
X141215619Y-115768380D02*
X141215619Y-114768380D01*
X141215619Y-115720761D02*
X141120380Y-115768380D01*
X140929904Y-115768380D01*
X140834666Y-115720761D01*
X140787047Y-115673142D01*
X140739428Y-115577904D01*
X140739428Y-115292190D01*
X140787047Y-115196952D01*
X140834666Y-115149333D01*
X140929904Y-115101714D01*
X141120380Y-115101714D01*
X141215619Y-115149333D01*
X142072761Y-115720761D02*
X141977523Y-115768380D01*
X141787047Y-115768380D01*
X141691809Y-115720761D01*
X141644190Y-115625523D01*
X141644190Y-115244571D01*
X141691809Y-115149333D01*
X141787047Y-115101714D01*
X141977523Y-115101714D01*
X142072761Y-115149333D01*
X142120380Y-115244571D01*
X142120380Y-115339809D01*
X141644190Y-115435047D01*
X142548952Y-115768380D02*
X142548952Y-115101714D01*
X142548952Y-115292190D02*
X142596571Y-115196952D01*
X142644190Y-115149333D01*
X142739428Y-115101714D01*
X142834666Y-115101714D01*
%TO.C,SW3*%
X189888761Y-97345333D02*
X189936380Y-97202476D01*
X189936380Y-96964380D01*
X189888761Y-96869142D01*
X189841142Y-96821523D01*
X189745904Y-96773904D01*
X189650666Y-96773904D01*
X189555428Y-96821523D01*
X189507809Y-96869142D01*
X189460190Y-96964380D01*
X189412571Y-97154857D01*
X189364952Y-97250095D01*
X189317333Y-97297714D01*
X189222095Y-97345333D01*
X189126857Y-97345333D01*
X189031619Y-97297714D01*
X188984000Y-97250095D01*
X188936380Y-97154857D01*
X188936380Y-96916761D01*
X188984000Y-96773904D01*
X188936380Y-96440571D02*
X189936380Y-96202476D01*
X189222095Y-96012000D01*
X189936380Y-95821523D01*
X188936380Y-95583428D01*
X188936380Y-95297714D02*
X188936380Y-94678666D01*
X189317333Y-95012000D01*
X189317333Y-94869142D01*
X189364952Y-94773904D01*
X189412571Y-94726285D01*
X189507809Y-94678666D01*
X189745904Y-94678666D01*
X189841142Y-94726285D01*
X189888761Y-94773904D01*
X189936380Y-94869142D01*
X189936380Y-95154857D01*
X189888761Y-95250095D01*
X189841142Y-95297714D01*
X191412761Y-100416761D02*
X191460380Y-100273904D01*
X191460380Y-100035809D01*
X191412761Y-99940571D01*
X191365142Y-99892952D01*
X191269904Y-99845333D01*
X191174666Y-99845333D01*
X191079428Y-99892952D01*
X191031809Y-99940571D01*
X190984190Y-100035809D01*
X190936571Y-100226285D01*
X190888952Y-100321523D01*
X190841333Y-100369142D01*
X190746095Y-100416761D01*
X190650857Y-100416761D01*
X190555619Y-100369142D01*
X190508000Y-100321523D01*
X190460380Y-100226285D01*
X190460380Y-99988190D01*
X190508000Y-99845333D01*
X190460380Y-99512000D02*
X191460380Y-99273904D01*
X190746095Y-99083428D01*
X191460380Y-98892952D01*
X190460380Y-98654857D01*
X191555619Y-98512000D02*
X191555619Y-97750095D01*
X190936571Y-97512000D02*
X190936571Y-97178666D01*
X191460380Y-97035809D02*
X191460380Y-97512000D01*
X190460380Y-97512000D01*
X190460380Y-97035809D01*
X191412761Y-96654857D02*
X191460380Y-96512000D01*
X191460380Y-96273904D01*
X191412761Y-96178666D01*
X191365142Y-96131047D01*
X191269904Y-96083428D01*
X191174666Y-96083428D01*
X191079428Y-96131047D01*
X191031809Y-96178666D01*
X190984190Y-96273904D01*
X190936571Y-96464380D01*
X190888952Y-96559619D01*
X190841333Y-96607238D01*
X190746095Y-96654857D01*
X190650857Y-96654857D01*
X190555619Y-96607238D01*
X190508000Y-96559619D01*
X190460380Y-96464380D01*
X190460380Y-96226285D01*
X190508000Y-96083428D01*
X191460380Y-95654857D02*
X190460380Y-95654857D01*
X190460380Y-95273904D01*
X190508000Y-95178666D01*
X190555619Y-95131047D01*
X190650857Y-95083428D01*
X190793714Y-95083428D01*
X190888952Y-95131047D01*
X190936571Y-95178666D01*
X190984190Y-95273904D01*
X190984190Y-95654857D01*
X191555619Y-94892952D02*
X191555619Y-94131047D01*
X191460380Y-93321523D02*
X190984190Y-93654857D01*
X191460380Y-93892952D02*
X190460380Y-93892952D01*
X190460380Y-93512000D01*
X190508000Y-93416761D01*
X190555619Y-93369142D01*
X190650857Y-93321523D01*
X190793714Y-93321523D01*
X190888952Y-93369142D01*
X190936571Y-93416761D01*
X190984190Y-93512000D01*
X190984190Y-93892952D01*
X191412761Y-92940571D02*
X191460380Y-92797714D01*
X191460380Y-92559619D01*
X191412761Y-92464380D01*
X191365142Y-92416761D01*
X191269904Y-92369142D01*
X191174666Y-92369142D01*
X191079428Y-92416761D01*
X191031809Y-92464380D01*
X190984190Y-92559619D01*
X190936571Y-92750095D01*
X190888952Y-92845333D01*
X190841333Y-92892952D01*
X190746095Y-92940571D01*
X190650857Y-92940571D01*
X190555619Y-92892952D01*
X190508000Y-92845333D01*
X190460380Y-92750095D01*
X190460380Y-92512000D01*
X190508000Y-92369142D01*
X190460380Y-92083428D02*
X190460380Y-91512000D01*
X191460380Y-91797714D02*
X190460380Y-91797714D01*
%TO.C,R11*%
X136517142Y-84092380D02*
X136183809Y-83616190D01*
X135945714Y-84092380D02*
X135945714Y-83092380D01*
X136326666Y-83092380D01*
X136421904Y-83140000D01*
X136469523Y-83187619D01*
X136517142Y-83282857D01*
X136517142Y-83425714D01*
X136469523Y-83520952D01*
X136421904Y-83568571D01*
X136326666Y-83616190D01*
X135945714Y-83616190D01*
X137469523Y-84092380D02*
X136898095Y-84092380D01*
X137183809Y-84092380D02*
X137183809Y-83092380D01*
X137088571Y-83235238D01*
X136993333Y-83330476D01*
X136898095Y-83378095D01*
X138421904Y-84092380D02*
X137850476Y-84092380D01*
X138136190Y-84092380D02*
X138136190Y-83092380D01*
X138040952Y-83235238D01*
X137945714Y-83330476D01*
X137850476Y-83378095D01*
%TO.C,U2*%
X168402095Y-76160380D02*
X168402095Y-76969904D01*
X168449714Y-77065142D01*
X168497333Y-77112761D01*
X168592571Y-77160380D01*
X168783047Y-77160380D01*
X168878285Y-77112761D01*
X168925904Y-77065142D01*
X168973523Y-76969904D01*
X168973523Y-76160380D01*
X169402095Y-76255619D02*
X169449714Y-76208000D01*
X169544952Y-76160380D01*
X169783047Y-76160380D01*
X169878285Y-76208000D01*
X169925904Y-76255619D01*
X169973523Y-76350857D01*
X169973523Y-76446095D01*
X169925904Y-76588952D01*
X169354476Y-77160380D01*
X169973523Y-77160380D01*
X171664380Y-73660000D02*
X171902476Y-73660000D01*
X171807238Y-73898095D02*
X171902476Y-73660000D01*
X171807238Y-73421904D01*
X172092952Y-73802857D02*
X171902476Y-73660000D01*
X172092952Y-73517142D01*
%TO.C,J9*%
X172386666Y-113244380D02*
X172386666Y-113958666D01*
X172339047Y-114101523D01*
X172243809Y-114196761D01*
X172100952Y-114244380D01*
X172005714Y-114244380D01*
X172910476Y-114244380D02*
X173100952Y-114244380D01*
X173196190Y-114196761D01*
X173243809Y-114149142D01*
X173339047Y-114006285D01*
X173386666Y-113815809D01*
X173386666Y-113434857D01*
X173339047Y-113339619D01*
X173291428Y-113292000D01*
X173196190Y-113244380D01*
X173005714Y-113244380D01*
X172910476Y-113292000D01*
X172862857Y-113339619D01*
X172815238Y-113434857D01*
X172815238Y-113672952D01*
X172862857Y-113768190D01*
X172910476Y-113815809D01*
X173005714Y-113863428D01*
X173196190Y-113863428D01*
X173291428Y-113815809D01*
X173339047Y-113768190D01*
X173386666Y-113672952D01*
X175323809Y-114928571D02*
X175466666Y-114976190D01*
X175514285Y-115023809D01*
X175561904Y-115119047D01*
X175561904Y-115261904D01*
X175514285Y-115357142D01*
X175466666Y-115404761D01*
X175371428Y-115452380D01*
X174990476Y-115452380D01*
X174990476Y-114452380D01*
X175323809Y-114452380D01*
X175419047Y-114500000D01*
X175466666Y-114547619D01*
X175514285Y-114642857D01*
X175514285Y-114738095D01*
X175466666Y-114833333D01*
X175419047Y-114880952D01*
X175323809Y-114928571D01*
X174990476Y-114928571D01*
X176419047Y-114785714D02*
X176419047Y-115452380D01*
X175990476Y-114785714D02*
X175990476Y-115309523D01*
X176038095Y-115404761D01*
X176133333Y-115452380D01*
X176276190Y-115452380D01*
X176371428Y-115404761D01*
X176419047Y-115357142D01*
X177323809Y-115404761D02*
X177228571Y-115452380D01*
X177038095Y-115452380D01*
X176942857Y-115404761D01*
X176895238Y-115357142D01*
X176847619Y-115261904D01*
X176847619Y-114976190D01*
X176895238Y-114880952D01*
X176942857Y-114833333D01*
X177038095Y-114785714D01*
X177228571Y-114785714D01*
X177323809Y-114833333D01*
X177752380Y-115452380D02*
X177752380Y-114452380D01*
X177847619Y-115071428D02*
X178133333Y-115452380D01*
X178133333Y-114785714D02*
X177752380Y-115166666D01*
X179323809Y-115452380D02*
X179323809Y-114452380D01*
X179800000Y-114785714D02*
X179800000Y-115452380D01*
X179800000Y-114880952D02*
X179847619Y-114833333D01*
X179942857Y-114785714D01*
X180085714Y-114785714D01*
X180180952Y-114833333D01*
X180228571Y-114928571D01*
X180228571Y-115452380D01*
X180704761Y-114785714D02*
X180704761Y-115785714D01*
X180704761Y-114833333D02*
X180800000Y-114785714D01*
X180990476Y-114785714D01*
X181085714Y-114833333D01*
X181133333Y-114880952D01*
X181180952Y-114976190D01*
X181180952Y-115261904D01*
X181133333Y-115357142D01*
X181085714Y-115404761D01*
X180990476Y-115452380D01*
X180800000Y-115452380D01*
X180704761Y-115404761D01*
X182038095Y-114785714D02*
X182038095Y-115452380D01*
X181609523Y-114785714D02*
X181609523Y-115309523D01*
X181657142Y-115404761D01*
X181752380Y-115452380D01*
X181895238Y-115452380D01*
X181990476Y-115404761D01*
X182038095Y-115357142D01*
X182371428Y-114785714D02*
X182752380Y-114785714D01*
X182514285Y-114452380D02*
X182514285Y-115309523D01*
X182561904Y-115404761D01*
X182657142Y-115452380D01*
X182752380Y-115452380D01*
%TO.C,J1*%
X131746666Y-81240380D02*
X131746666Y-81954666D01*
X131699047Y-82097523D01*
X131603809Y-82192761D01*
X131460952Y-82240380D01*
X131365714Y-82240380D01*
X132746666Y-82240380D02*
X132175238Y-82240380D01*
X132460952Y-82240380D02*
X132460952Y-81240380D01*
X132365714Y-81383238D01*
X132270476Y-81478476D01*
X132175238Y-81526095D01*
X134056380Y-81192000D02*
X133056380Y-81192000D01*
X133151619Y-80763428D02*
X133104000Y-80715809D01*
X133056380Y-80620571D01*
X133056380Y-80382476D01*
X133104000Y-80287238D01*
X133151619Y-80239619D01*
X133246857Y-80192000D01*
X133342095Y-80192000D01*
X133484952Y-80239619D01*
X134056380Y-80811047D01*
X134056380Y-80192000D01*
X133961142Y-79192000D02*
X134008761Y-79239619D01*
X134056380Y-79382476D01*
X134056380Y-79477714D01*
X134008761Y-79620571D01*
X133913523Y-79715809D01*
X133818285Y-79763428D01*
X133627809Y-79811047D01*
X133484952Y-79811047D01*
X133294476Y-79763428D01*
X133199238Y-79715809D01*
X133104000Y-79620571D01*
X133056380Y-79477714D01*
X133056380Y-79382476D01*
X133104000Y-79239619D01*
X133151619Y-79192000D01*
X134151619Y-79001523D02*
X134151619Y-78239619D01*
X133532571Y-78001523D02*
X133532571Y-77668190D01*
X134056380Y-77525333D02*
X134056380Y-78001523D01*
X133056380Y-78001523D01*
X133056380Y-77525333D01*
X133056380Y-77192000D02*
X134056380Y-76525333D01*
X133056380Y-76525333D02*
X134056380Y-77192000D01*
X134056380Y-76144380D02*
X133056380Y-76144380D01*
X133056380Y-75763428D01*
X133104000Y-75668190D01*
X133151619Y-75620571D01*
X133246857Y-75572952D01*
X133389714Y-75572952D01*
X133484952Y-75620571D01*
X133532571Y-75668190D01*
X133580190Y-75763428D01*
X133580190Y-76144380D01*
X133770666Y-75192000D02*
X133770666Y-74715809D01*
X134056380Y-75287238D02*
X133056380Y-74953904D01*
X134056380Y-74620571D01*
X134056380Y-74287238D02*
X133056380Y-74287238D01*
X134056380Y-73715809D01*
X133056380Y-73715809D01*
X134008761Y-73287238D02*
X134056380Y-73144380D01*
X134056380Y-72906285D01*
X134008761Y-72811047D01*
X133961142Y-72763428D01*
X133865904Y-72715809D01*
X133770666Y-72715809D01*
X133675428Y-72763428D01*
X133627809Y-72811047D01*
X133580190Y-72906285D01*
X133532571Y-73096761D01*
X133484952Y-73192000D01*
X133437333Y-73239619D01*
X133342095Y-73287238D01*
X133246857Y-73287238D01*
X133151619Y-73239619D01*
X133104000Y-73192000D01*
X133056380Y-73096761D01*
X133056380Y-72858666D01*
X133104000Y-72715809D01*
X134056380Y-72287238D02*
X133056380Y-72287238D01*
X133056380Y-71620571D02*
X133056380Y-71430095D01*
X133104000Y-71334857D01*
X133199238Y-71239619D01*
X133389714Y-71192000D01*
X133723047Y-71192000D01*
X133913523Y-71239619D01*
X134008761Y-71334857D01*
X134056380Y-71430095D01*
X134056380Y-71620571D01*
X134008761Y-71715809D01*
X133913523Y-71811047D01*
X133723047Y-71858666D01*
X133389714Y-71858666D01*
X133199238Y-71811047D01*
X133104000Y-71715809D01*
X133056380Y-71620571D01*
X134056380Y-70763428D02*
X133056380Y-70763428D01*
X134056380Y-70192000D01*
X133056380Y-70192000D01*
%TO.C,R5*%
X198147333Y-109364380D02*
X197814000Y-108888190D01*
X197575904Y-109364380D02*
X197575904Y-108364380D01*
X197956857Y-108364380D01*
X198052095Y-108412000D01*
X198099714Y-108459619D01*
X198147333Y-108554857D01*
X198147333Y-108697714D01*
X198099714Y-108792952D01*
X198052095Y-108840571D01*
X197956857Y-108888190D01*
X197575904Y-108888190D01*
X199052095Y-108364380D02*
X198575904Y-108364380D01*
X198528285Y-108840571D01*
X198575904Y-108792952D01*
X198671142Y-108745333D01*
X198909238Y-108745333D01*
X199004476Y-108792952D01*
X199052095Y-108840571D01*
X199099714Y-108935809D01*
X199099714Y-109173904D01*
X199052095Y-109269142D01*
X199004476Y-109316761D01*
X198909238Y-109364380D01*
X198671142Y-109364380D01*
X198575904Y-109316761D01*
X198528285Y-109269142D01*
%TO.C,R3*%
X168997333Y-101544380D02*
X168664000Y-101068190D01*
X168425904Y-101544380D02*
X168425904Y-100544380D01*
X168806857Y-100544380D01*
X168902095Y-100592000D01*
X168949714Y-100639619D01*
X168997333Y-100734857D01*
X168997333Y-100877714D01*
X168949714Y-100972952D01*
X168902095Y-101020571D01*
X168806857Y-101068190D01*
X168425904Y-101068190D01*
X169330666Y-100544380D02*
X169949714Y-100544380D01*
X169616380Y-100925333D01*
X169759238Y-100925333D01*
X169854476Y-100972952D01*
X169902095Y-101020571D01*
X169949714Y-101115809D01*
X169949714Y-101353904D01*
X169902095Y-101449142D01*
X169854476Y-101496761D01*
X169759238Y-101544380D01*
X169473523Y-101544380D01*
X169378285Y-101496761D01*
X169330666Y-101449142D01*
%TO.C,J5*%
X166798666Y-59904380D02*
X166798666Y-60618666D01*
X166751047Y-60761523D01*
X166655809Y-60856761D01*
X166512952Y-60904380D01*
X166417714Y-60904380D01*
X167751047Y-59904380D02*
X167274857Y-59904380D01*
X167227238Y-60380571D01*
X167274857Y-60332952D01*
X167370095Y-60285333D01*
X167608190Y-60285333D01*
X167703428Y-60332952D01*
X167751047Y-60380571D01*
X167798666Y-60475809D01*
X167798666Y-60713904D01*
X167751047Y-60809142D01*
X167703428Y-60856761D01*
X167608190Y-60904380D01*
X167370095Y-60904380D01*
X167274857Y-60856761D01*
X167227238Y-60809142D01*
X168608952Y-60380571D02*
X168942285Y-60380571D01*
X169085142Y-60904380D02*
X168608952Y-60904380D01*
X168608952Y-59904380D01*
X169085142Y-59904380D01*
X169513714Y-60904380D02*
X169513714Y-59904380D01*
X170085142Y-60904380D01*
X170085142Y-59904380D01*
X171132761Y-60809142D02*
X171085142Y-60856761D01*
X170942285Y-60904380D01*
X170847047Y-60904380D01*
X170704190Y-60856761D01*
X170608952Y-60761523D01*
X170561333Y-60666285D01*
X170513714Y-60475809D01*
X170513714Y-60332952D01*
X170561333Y-60142476D01*
X170608952Y-60047238D01*
X170704190Y-59952000D01*
X170847047Y-59904380D01*
X170942285Y-59904380D01*
X171085142Y-59952000D01*
X171132761Y-59999619D01*
X172037523Y-60904380D02*
X171561333Y-60904380D01*
X171561333Y-59904380D01*
X172132761Y-60999619D02*
X172894666Y-60999619D01*
X173132761Y-60904380D02*
X173132761Y-59904380D01*
X173132761Y-60380571D02*
X173704190Y-60380571D01*
X173704190Y-60904380D02*
X173704190Y-59904380D01*
X174561333Y-60856761D02*
X174466095Y-60904380D01*
X174275619Y-60904380D01*
X174180380Y-60856761D01*
X174132761Y-60761523D01*
X174132761Y-60380571D01*
X174180380Y-60285333D01*
X174275619Y-60237714D01*
X174466095Y-60237714D01*
X174561333Y-60285333D01*
X174608952Y-60380571D01*
X174608952Y-60475809D01*
X174132761Y-60571047D01*
X175466095Y-60904380D02*
X175466095Y-60380571D01*
X175418476Y-60285333D01*
X175323238Y-60237714D01*
X175132761Y-60237714D01*
X175037523Y-60285333D01*
X175466095Y-60856761D02*
X175370857Y-60904380D01*
X175132761Y-60904380D01*
X175037523Y-60856761D01*
X174989904Y-60761523D01*
X174989904Y-60666285D01*
X175037523Y-60571047D01*
X175132761Y-60523428D01*
X175370857Y-60523428D01*
X175466095Y-60475809D01*
X176370857Y-60904380D02*
X176370857Y-59904380D01*
X176370857Y-60856761D02*
X176275619Y-60904380D01*
X176085142Y-60904380D01*
X175989904Y-60856761D01*
X175942285Y-60809142D01*
X175894666Y-60713904D01*
X175894666Y-60428190D01*
X175942285Y-60332952D01*
X175989904Y-60285333D01*
X176085142Y-60237714D01*
X176275619Y-60237714D01*
X176370857Y-60285333D01*
X177228000Y-60856761D02*
X177132761Y-60904380D01*
X176942285Y-60904380D01*
X176847047Y-60856761D01*
X176799428Y-60761523D01*
X176799428Y-60380571D01*
X176847047Y-60285333D01*
X176942285Y-60237714D01*
X177132761Y-60237714D01*
X177228000Y-60285333D01*
X177275619Y-60380571D01*
X177275619Y-60475809D01*
X176799428Y-60571047D01*
X177704190Y-60904380D02*
X177704190Y-60237714D01*
X177704190Y-60428190D02*
X177751809Y-60332952D01*
X177799428Y-60285333D01*
X177894666Y-60237714D01*
X177989904Y-60237714D01*
%TO.C,J7*%
X130730666Y-59674380D02*
X130730666Y-60388666D01*
X130683047Y-60531523D01*
X130587809Y-60626761D01*
X130444952Y-60674380D01*
X130349714Y-60674380D01*
X131111619Y-59674380D02*
X131778285Y-59674380D01*
X131349714Y-60674380D01*
X128825904Y-68754380D02*
X128825904Y-67754380D01*
X129159238Y-68468666D01*
X129492571Y-67754380D01*
X129492571Y-68754380D01*
X130111619Y-68754380D02*
X130016380Y-68706761D01*
X129968761Y-68659142D01*
X129921142Y-68563904D01*
X129921142Y-68278190D01*
X129968761Y-68182952D01*
X130016380Y-68135333D01*
X130111619Y-68087714D01*
X130254476Y-68087714D01*
X130349714Y-68135333D01*
X130397333Y-68182952D01*
X130444952Y-68278190D01*
X130444952Y-68563904D01*
X130397333Y-68659142D01*
X130349714Y-68706761D01*
X130254476Y-68754380D01*
X130111619Y-68754380D01*
X130730666Y-68087714D02*
X131111619Y-68087714D01*
X130873523Y-67754380D02*
X130873523Y-68611523D01*
X130921142Y-68706761D01*
X131016380Y-68754380D01*
X131111619Y-68754380D01*
X131587809Y-68754380D02*
X131492571Y-68706761D01*
X131444952Y-68659142D01*
X131397333Y-68563904D01*
X131397333Y-68278190D01*
X131444952Y-68182952D01*
X131492571Y-68135333D01*
X131587809Y-68087714D01*
X131730666Y-68087714D01*
X131825904Y-68135333D01*
X131873523Y-68182952D01*
X131921142Y-68278190D01*
X131921142Y-68563904D01*
X131873523Y-68659142D01*
X131825904Y-68706761D01*
X131730666Y-68754380D01*
X131587809Y-68754380D01*
X132349714Y-68754380D02*
X132349714Y-68087714D01*
X132349714Y-68278190D02*
X132397333Y-68182952D01*
X132444952Y-68135333D01*
X132540190Y-68087714D01*
X132635428Y-68087714D01*
X133444952Y-68754380D02*
X132968761Y-68754380D01*
X132968761Y-67754380D01*
%TO.C,R2*%
X168997333Y-106624380D02*
X168664000Y-106148190D01*
X168425904Y-106624380D02*
X168425904Y-105624380D01*
X168806857Y-105624380D01*
X168902095Y-105672000D01*
X168949714Y-105719619D01*
X168997333Y-105814857D01*
X168997333Y-105957714D01*
X168949714Y-106052952D01*
X168902095Y-106100571D01*
X168806857Y-106148190D01*
X168425904Y-106148190D01*
X169378285Y-105719619D02*
X169425904Y-105672000D01*
X169521142Y-105624380D01*
X169759238Y-105624380D01*
X169854476Y-105672000D01*
X169902095Y-105719619D01*
X169949714Y-105814857D01*
X169949714Y-105910095D01*
X169902095Y-106052952D01*
X169330666Y-106624380D01*
X169949714Y-106624380D01*
%TO.C,J8*%
X136343666Y-59674380D02*
X136343666Y-60388666D01*
X136296047Y-60531523D01*
X136200809Y-60626761D01*
X136057952Y-60674380D01*
X135962714Y-60674380D01*
X136962714Y-60102952D02*
X136867476Y-60055333D01*
X136819857Y-60007714D01*
X136772238Y-59912476D01*
X136772238Y-59864857D01*
X136819857Y-59769619D01*
X136867476Y-59722000D01*
X136962714Y-59674380D01*
X137153190Y-59674380D01*
X137248428Y-59722000D01*
X137296047Y-59769619D01*
X137343666Y-59864857D01*
X137343666Y-59912476D01*
X137296047Y-60007714D01*
X137248428Y-60055333D01*
X137153190Y-60102952D01*
X136962714Y-60102952D01*
X136867476Y-60150571D01*
X136819857Y-60198190D01*
X136772238Y-60293428D01*
X136772238Y-60483904D01*
X136819857Y-60579142D01*
X136867476Y-60626761D01*
X136962714Y-60674380D01*
X137153190Y-60674380D01*
X137248428Y-60626761D01*
X137296047Y-60579142D01*
X137343666Y-60483904D01*
X137343666Y-60293428D01*
X137296047Y-60198190D01*
X137248428Y-60150571D01*
X137153190Y-60102952D01*
X134343666Y-68754380D02*
X134343666Y-67754380D01*
X134677000Y-68468666D01*
X135010333Y-67754380D01*
X135010333Y-68754380D01*
X135629380Y-68754380D02*
X135534142Y-68706761D01*
X135486523Y-68659142D01*
X135438904Y-68563904D01*
X135438904Y-68278190D01*
X135486523Y-68182952D01*
X135534142Y-68135333D01*
X135629380Y-68087714D01*
X135772238Y-68087714D01*
X135867476Y-68135333D01*
X135915095Y-68182952D01*
X135962714Y-68278190D01*
X135962714Y-68563904D01*
X135915095Y-68659142D01*
X135867476Y-68706761D01*
X135772238Y-68754380D01*
X135629380Y-68754380D01*
X136248428Y-68087714D02*
X136629380Y-68087714D01*
X136391285Y-67754380D02*
X136391285Y-68611523D01*
X136438904Y-68706761D01*
X136534142Y-68754380D01*
X136629380Y-68754380D01*
X137105571Y-68754380D02*
X137010333Y-68706761D01*
X136962714Y-68659142D01*
X136915095Y-68563904D01*
X136915095Y-68278190D01*
X136962714Y-68182952D01*
X137010333Y-68135333D01*
X137105571Y-68087714D01*
X137248428Y-68087714D01*
X137343666Y-68135333D01*
X137391285Y-68182952D01*
X137438904Y-68278190D01*
X137438904Y-68563904D01*
X137391285Y-68659142D01*
X137343666Y-68706761D01*
X137248428Y-68754380D01*
X137105571Y-68754380D01*
X137867476Y-68754380D02*
X137867476Y-68087714D01*
X137867476Y-68278190D02*
X137915095Y-68182952D01*
X137962714Y-68135333D01*
X138057952Y-68087714D01*
X138153190Y-68087714D01*
X139057952Y-68754380D02*
X138724619Y-68278190D01*
X138486523Y-68754380D02*
X138486523Y-67754380D01*
X138867476Y-67754380D01*
X138962714Y-67802000D01*
X139010333Y-67849619D01*
X139057952Y-67944857D01*
X139057952Y-68087714D01*
X139010333Y-68182952D01*
X138962714Y-68230571D01*
X138867476Y-68278190D01*
X138486523Y-68278190D01*
%TO.C,R1*%
X168997333Y-104084380D02*
X168664000Y-103608190D01*
X168425904Y-104084380D02*
X168425904Y-103084380D01*
X168806857Y-103084380D01*
X168902095Y-103132000D01*
X168949714Y-103179619D01*
X168997333Y-103274857D01*
X168997333Y-103417714D01*
X168949714Y-103512952D01*
X168902095Y-103560571D01*
X168806857Y-103608190D01*
X168425904Y-103608190D01*
X169949714Y-104084380D02*
X169378285Y-104084380D01*
X169664000Y-104084380D02*
X169664000Y-103084380D01*
X169568761Y-103227238D01*
X169473523Y-103322476D01*
X169378285Y-103370095D01*
%TO.C,D4*%
X179372380Y-98787095D02*
X178372380Y-98787095D01*
X178372380Y-98549000D01*
X178420000Y-98406142D01*
X178515238Y-98310904D01*
X178610476Y-98263285D01*
X178800952Y-98215666D01*
X178943809Y-98215666D01*
X179134285Y-98263285D01*
X179229523Y-98310904D01*
X179324761Y-98406142D01*
X179372380Y-98549000D01*
X179372380Y-98787095D01*
X178705714Y-97358523D02*
X179372380Y-97358523D01*
X178324761Y-97596619D02*
X179039047Y-97834714D01*
X179039047Y-97215666D01*
X186768571Y-101453761D02*
X186768571Y-101120428D01*
X187292380Y-100977571D02*
X187292380Y-101453761D01*
X186292380Y-101453761D01*
X186292380Y-100977571D01*
X187244761Y-100596619D02*
X187292380Y-100453761D01*
X187292380Y-100215666D01*
X187244761Y-100120428D01*
X187197142Y-100072809D01*
X187101904Y-100025190D01*
X187006666Y-100025190D01*
X186911428Y-100072809D01*
X186863809Y-100120428D01*
X186816190Y-100215666D01*
X186768571Y-100406142D01*
X186720952Y-100501380D01*
X186673333Y-100549000D01*
X186578095Y-100596619D01*
X186482857Y-100596619D01*
X186387619Y-100549000D01*
X186340000Y-100501380D01*
X186292380Y-100406142D01*
X186292380Y-100168047D01*
X186340000Y-100025190D01*
X187292380Y-99596619D02*
X186292380Y-99596619D01*
X186292380Y-99215666D01*
X186340000Y-99120428D01*
X186387619Y-99072809D01*
X186482857Y-99025190D01*
X186625714Y-99025190D01*
X186720952Y-99072809D01*
X186768571Y-99120428D01*
X186816190Y-99215666D01*
X186816190Y-99596619D01*
X187387619Y-98834714D02*
X187387619Y-98072809D01*
X187292380Y-97358523D02*
X187292380Y-97834714D01*
X186292380Y-97834714D01*
X186768571Y-97025190D02*
X186768571Y-96691857D01*
X187292380Y-96549000D02*
X187292380Y-97025190D01*
X186292380Y-97025190D01*
X186292380Y-96549000D01*
X187292380Y-96120428D02*
X186292380Y-96120428D01*
X186292380Y-95882333D01*
X186340000Y-95739476D01*
X186435238Y-95644238D01*
X186530476Y-95596619D01*
X186720952Y-95549000D01*
X186863809Y-95549000D01*
X187054285Y-95596619D01*
X187149523Y-95644238D01*
X187244761Y-95739476D01*
X187292380Y-95882333D01*
X187292380Y-96120428D01*
X186292380Y-94929952D02*
X186292380Y-94834714D01*
X186340000Y-94739476D01*
X186387619Y-94691857D01*
X186482857Y-94644238D01*
X186673333Y-94596619D01*
X186911428Y-94596619D01*
X187101904Y-94644238D01*
X187197142Y-94691857D01*
X187244761Y-94739476D01*
X187292380Y-94834714D01*
X187292380Y-94929952D01*
X187244761Y-95025190D01*
X187197142Y-95072809D01*
X187101904Y-95120428D01*
X186911428Y-95168047D01*
X186673333Y-95168047D01*
X186482857Y-95120428D01*
X186387619Y-95072809D01*
X186340000Y-95025190D01*
X186292380Y-94929952D01*
%TO.C,J10*%
X195278476Y-70572380D02*
X195278476Y-71286666D01*
X195230857Y-71429523D01*
X195135619Y-71524761D01*
X194992761Y-71572380D01*
X194897523Y-71572380D01*
X196278476Y-71572380D02*
X195707047Y-71572380D01*
X195992761Y-71572380D02*
X195992761Y-70572380D01*
X195897523Y-70715238D01*
X195802285Y-70810476D01*
X195707047Y-70858095D01*
X196897523Y-70572380D02*
X196992761Y-70572380D01*
X197088000Y-70620000D01*
X197135619Y-70667619D01*
X197183238Y-70762857D01*
X197230857Y-70953333D01*
X197230857Y-71191428D01*
X197183238Y-71381904D01*
X197135619Y-71477142D01*
X197088000Y-71524761D01*
X196992761Y-71572380D01*
X196897523Y-71572380D01*
X196802285Y-71524761D01*
X196754666Y-71477142D01*
X196707047Y-71381904D01*
X196659428Y-71191428D01*
X196659428Y-70953333D01*
X196707047Y-70762857D01*
X196754666Y-70667619D01*
X196802285Y-70620000D01*
X196897523Y-70572380D01*
X187484380Y-69524571D02*
X187627238Y-69572190D01*
X187674857Y-69619809D01*
X187722476Y-69715047D01*
X187722476Y-69857904D01*
X187674857Y-69953142D01*
X187627238Y-70000761D01*
X187532000Y-70048380D01*
X187151047Y-70048380D01*
X187151047Y-69048380D01*
X187484380Y-69048380D01*
X187579619Y-69096000D01*
X187627238Y-69143619D01*
X187674857Y-69238857D01*
X187674857Y-69334095D01*
X187627238Y-69429333D01*
X187579619Y-69476952D01*
X187484380Y-69524571D01*
X187151047Y-69524571D01*
X188579619Y-70048380D02*
X188579619Y-69524571D01*
X188532000Y-69429333D01*
X188436761Y-69381714D01*
X188246285Y-69381714D01*
X188151047Y-69429333D01*
X188579619Y-70000761D02*
X188484380Y-70048380D01*
X188246285Y-70048380D01*
X188151047Y-70000761D01*
X188103428Y-69905523D01*
X188103428Y-69810285D01*
X188151047Y-69715047D01*
X188246285Y-69667428D01*
X188484380Y-69667428D01*
X188579619Y-69619809D01*
X188912952Y-69381714D02*
X189293904Y-69381714D01*
X189055809Y-69048380D02*
X189055809Y-69905523D01*
X189103428Y-70000761D01*
X189198666Y-70048380D01*
X189293904Y-70048380D01*
X189484380Y-69381714D02*
X189865333Y-69381714D01*
X189627238Y-69048380D02*
X189627238Y-69905523D01*
X189674857Y-70000761D01*
X189770095Y-70048380D01*
X189865333Y-70048380D01*
X190579619Y-70000761D02*
X190484380Y-70048380D01*
X190293904Y-70048380D01*
X190198666Y-70000761D01*
X190151047Y-69905523D01*
X190151047Y-69524571D01*
X190198666Y-69429333D01*
X190293904Y-69381714D01*
X190484380Y-69381714D01*
X190579619Y-69429333D01*
X190627238Y-69524571D01*
X190627238Y-69619809D01*
X190151047Y-69715047D01*
X191055809Y-70048380D02*
X191055809Y-69381714D01*
X191055809Y-69572190D02*
X191103428Y-69476952D01*
X191151047Y-69429333D01*
X191246285Y-69381714D01*
X191341523Y-69381714D01*
X191579619Y-69381714D02*
X191817714Y-70048380D01*
X192055809Y-69381714D02*
X191817714Y-70048380D01*
X191722476Y-70286476D01*
X191674857Y-70334095D01*
X191579619Y-70381714D01*
X193198666Y-70048380D02*
X193198666Y-69048380D01*
X193198666Y-69524571D02*
X193770095Y-69524571D01*
X193770095Y-70048380D02*
X193770095Y-69048380D01*
X194627238Y-70000761D02*
X194532000Y-70048380D01*
X194341523Y-70048380D01*
X194246285Y-70000761D01*
X194198666Y-69905523D01*
X194198666Y-69524571D01*
X194246285Y-69429333D01*
X194341523Y-69381714D01*
X194532000Y-69381714D01*
X194627238Y-69429333D01*
X194674857Y-69524571D01*
X194674857Y-69619809D01*
X194198666Y-69715047D01*
X195532000Y-70048380D02*
X195532000Y-69524571D01*
X195484380Y-69429333D01*
X195389142Y-69381714D01*
X195198666Y-69381714D01*
X195103428Y-69429333D01*
X195532000Y-70000761D02*
X195436761Y-70048380D01*
X195198666Y-70048380D01*
X195103428Y-70000761D01*
X195055809Y-69905523D01*
X195055809Y-69810285D01*
X195103428Y-69715047D01*
X195198666Y-69667428D01*
X195436761Y-69667428D01*
X195532000Y-69619809D01*
X196436761Y-70048380D02*
X196436761Y-69048380D01*
X196436761Y-70000761D02*
X196341523Y-70048380D01*
X196151047Y-70048380D01*
X196055809Y-70000761D01*
X196008190Y-69953142D01*
X195960571Y-69857904D01*
X195960571Y-69572190D01*
X196008190Y-69476952D01*
X196055809Y-69429333D01*
X196151047Y-69381714D01*
X196341523Y-69381714D01*
X196436761Y-69429333D01*
X197293904Y-70000761D02*
X197198666Y-70048380D01*
X197008190Y-70048380D01*
X196912952Y-70000761D01*
X196865333Y-69905523D01*
X196865333Y-69524571D01*
X196912952Y-69429333D01*
X197008190Y-69381714D01*
X197198666Y-69381714D01*
X197293904Y-69429333D01*
X197341523Y-69524571D01*
X197341523Y-69619809D01*
X196865333Y-69715047D01*
X197770095Y-70048380D02*
X197770095Y-69381714D01*
X197770095Y-69572190D02*
X197817714Y-69476952D01*
X197865333Y-69429333D01*
X197960571Y-69381714D01*
X198055809Y-69381714D01*
%TO.C,J4*%
X182038666Y-59904380D02*
X182038666Y-60618666D01*
X181991047Y-60761523D01*
X181895809Y-60856761D01*
X181752952Y-60904380D01*
X181657714Y-60904380D01*
X182943428Y-60237714D02*
X182943428Y-60904380D01*
X182705333Y-59856761D02*
X182467238Y-60571047D01*
X183086285Y-60571047D01*
X183753714Y-60380571D02*
X184087047Y-60380571D01*
X184229904Y-60904380D02*
X183753714Y-60904380D01*
X183753714Y-59904380D01*
X184229904Y-59904380D01*
X184658476Y-60904380D02*
X184658476Y-59904380D01*
X185229904Y-60904380D01*
X185229904Y-59904380D01*
X186277523Y-60809142D02*
X186229904Y-60856761D01*
X186087047Y-60904380D01*
X185991809Y-60904380D01*
X185848952Y-60856761D01*
X185753714Y-60761523D01*
X185706095Y-60666285D01*
X185658476Y-60475809D01*
X185658476Y-60332952D01*
X185706095Y-60142476D01*
X185753714Y-60047238D01*
X185848952Y-59952000D01*
X185991809Y-59904380D01*
X186087047Y-59904380D01*
X186229904Y-59952000D01*
X186277523Y-59999619D01*
X187277523Y-60904380D02*
X186944190Y-60428190D01*
X186706095Y-60904380D02*
X186706095Y-59904380D01*
X187087047Y-59904380D01*
X187182285Y-59952000D01*
X187229904Y-59999619D01*
X187277523Y-60094857D01*
X187277523Y-60237714D01*
X187229904Y-60332952D01*
X187182285Y-60380571D01*
X187087047Y-60428190D01*
X186706095Y-60428190D01*
X187468000Y-60999619D02*
X188229904Y-60999619D01*
X188468000Y-60904380D02*
X188468000Y-59904380D01*
X188468000Y-60380571D02*
X189039428Y-60380571D01*
X189039428Y-60904380D02*
X189039428Y-59904380D01*
X189896571Y-60856761D02*
X189801333Y-60904380D01*
X189610857Y-60904380D01*
X189515619Y-60856761D01*
X189468000Y-60761523D01*
X189468000Y-60380571D01*
X189515619Y-60285333D01*
X189610857Y-60237714D01*
X189801333Y-60237714D01*
X189896571Y-60285333D01*
X189944190Y-60380571D01*
X189944190Y-60475809D01*
X189468000Y-60571047D01*
X190801333Y-60904380D02*
X190801333Y-60380571D01*
X190753714Y-60285333D01*
X190658476Y-60237714D01*
X190468000Y-60237714D01*
X190372761Y-60285333D01*
X190801333Y-60856761D02*
X190706095Y-60904380D01*
X190468000Y-60904380D01*
X190372761Y-60856761D01*
X190325142Y-60761523D01*
X190325142Y-60666285D01*
X190372761Y-60571047D01*
X190468000Y-60523428D01*
X190706095Y-60523428D01*
X190801333Y-60475809D01*
X191706095Y-60904380D02*
X191706095Y-59904380D01*
X191706095Y-60856761D02*
X191610857Y-60904380D01*
X191420380Y-60904380D01*
X191325142Y-60856761D01*
X191277523Y-60809142D01*
X191229904Y-60713904D01*
X191229904Y-60428190D01*
X191277523Y-60332952D01*
X191325142Y-60285333D01*
X191420380Y-60237714D01*
X191610857Y-60237714D01*
X191706095Y-60285333D01*
X192563238Y-60856761D02*
X192468000Y-60904380D01*
X192277523Y-60904380D01*
X192182285Y-60856761D01*
X192134666Y-60761523D01*
X192134666Y-60380571D01*
X192182285Y-60285333D01*
X192277523Y-60237714D01*
X192468000Y-60237714D01*
X192563238Y-60285333D01*
X192610857Y-60380571D01*
X192610857Y-60475809D01*
X192134666Y-60571047D01*
X193039428Y-60904380D02*
X193039428Y-60237714D01*
X193039428Y-60428190D02*
X193087047Y-60332952D01*
X193134666Y-60285333D01*
X193229904Y-60237714D01*
X193325142Y-60237714D01*
%TO.C,U1*%
X151778095Y-86844380D02*
X151778095Y-87653904D01*
X151825714Y-87749142D01*
X151873333Y-87796761D01*
X151968571Y-87844380D01*
X152159047Y-87844380D01*
X152254285Y-87796761D01*
X152301904Y-87749142D01*
X152349523Y-87653904D01*
X152349523Y-86844380D01*
X153349523Y-87844380D02*
X152778095Y-87844380D01*
X153063809Y-87844380D02*
X153063809Y-86844380D01*
X152968571Y-86987238D01*
X152873333Y-87082476D01*
X152778095Y-87130095D01*
X149709523Y-91336761D02*
X149852380Y-91384380D01*
X150090476Y-91384380D01*
X150185714Y-91336761D01*
X150233333Y-91289142D01*
X150280952Y-91193904D01*
X150280952Y-91098666D01*
X150233333Y-91003428D01*
X150185714Y-90955809D01*
X150090476Y-90908190D01*
X149900000Y-90860571D01*
X149804761Y-90812952D01*
X149757142Y-90765333D01*
X149709523Y-90670095D01*
X149709523Y-90574857D01*
X149757142Y-90479619D01*
X149804761Y-90432000D01*
X149900000Y-90384380D01*
X150138095Y-90384380D01*
X150280952Y-90432000D01*
X151280952Y-91289142D02*
X151233333Y-91336761D01*
X151090476Y-91384380D01*
X150995238Y-91384380D01*
X150852380Y-91336761D01*
X150757142Y-91241523D01*
X150709523Y-91146285D01*
X150661904Y-90955809D01*
X150661904Y-90812952D01*
X150709523Y-90622476D01*
X150757142Y-90527238D01*
X150852380Y-90432000D01*
X150995238Y-90384380D01*
X151090476Y-90384380D01*
X151233333Y-90432000D01*
X151280952Y-90479619D01*
X151900000Y-90384380D02*
X151995238Y-90384380D01*
X152090476Y-90432000D01*
X152138095Y-90479619D01*
X152185714Y-90574857D01*
X152233333Y-90765333D01*
X152233333Y-91003428D01*
X152185714Y-91193904D01*
X152138095Y-91289142D01*
X152090476Y-91336761D01*
X151995238Y-91384380D01*
X151900000Y-91384380D01*
X151804761Y-91336761D01*
X151757142Y-91289142D01*
X151709523Y-91193904D01*
X151661904Y-91003428D01*
X151661904Y-90765333D01*
X151709523Y-90574857D01*
X151757142Y-90479619D01*
X151804761Y-90432000D01*
X151900000Y-90384380D01*
X152709523Y-91384380D02*
X152900000Y-91384380D01*
X152995238Y-91336761D01*
X153042857Y-91289142D01*
X153138095Y-91146285D01*
X153185714Y-90955809D01*
X153185714Y-90574857D01*
X153138095Y-90479619D01*
X153090476Y-90432000D01*
X152995238Y-90384380D01*
X152804761Y-90384380D01*
X152709523Y-90432000D01*
X152661904Y-90479619D01*
X152614285Y-90574857D01*
X152614285Y-90812952D01*
X152661904Y-90908190D01*
X152709523Y-90955809D01*
X152804761Y-91003428D01*
X152995238Y-91003428D01*
X153090476Y-90955809D01*
X153138095Y-90908190D01*
X153185714Y-90812952D01*
X154138095Y-91384380D02*
X153566666Y-91384380D01*
X153852380Y-91384380D02*
X153852380Y-90384380D01*
X153757142Y-90527238D01*
X153661904Y-90622476D01*
X153566666Y-90670095D01*
X155042857Y-90384380D02*
X154566666Y-90384380D01*
X154519047Y-90860571D01*
X154566666Y-90812952D01*
X154661904Y-90765333D01*
X154900000Y-90765333D01*
X154995238Y-90812952D01*
X155042857Y-90860571D01*
X155090476Y-90955809D01*
X155090476Y-91193904D01*
X155042857Y-91289142D01*
X154995238Y-91336761D01*
X154900000Y-91384380D01*
X154661904Y-91384380D01*
X154566666Y-91336761D01*
X154519047Y-91289142D01*
%TO.C,R6*%
X198077333Y-112880380D02*
X197744000Y-112404190D01*
X197505904Y-112880380D02*
X197505904Y-111880380D01*
X197886857Y-111880380D01*
X197982095Y-111928000D01*
X198029714Y-111975619D01*
X198077333Y-112070857D01*
X198077333Y-112213714D01*
X198029714Y-112308952D01*
X197982095Y-112356571D01*
X197886857Y-112404190D01*
X197505904Y-112404190D01*
X198934476Y-111880380D02*
X198744000Y-111880380D01*
X198648761Y-111928000D01*
X198601142Y-111975619D01*
X198505904Y-112118476D01*
X198458285Y-112308952D01*
X198458285Y-112689904D01*
X198505904Y-112785142D01*
X198553523Y-112832761D01*
X198648761Y-112880380D01*
X198839238Y-112880380D01*
X198934476Y-112832761D01*
X198982095Y-112785142D01*
X199029714Y-112689904D01*
X199029714Y-112451809D01*
X198982095Y-112356571D01*
X198934476Y-112308952D01*
X198839238Y-112261333D01*
X198648761Y-112261333D01*
X198553523Y-112308952D01*
X198505904Y-112356571D01*
X198458285Y-112451809D01*
%TO.C,R4*%
X198147333Y-105808380D02*
X197814000Y-105332190D01*
X197575904Y-105808380D02*
X197575904Y-104808380D01*
X197956857Y-104808380D01*
X198052095Y-104856000D01*
X198099714Y-104903619D01*
X198147333Y-104998857D01*
X198147333Y-105141714D01*
X198099714Y-105236952D01*
X198052095Y-105284571D01*
X197956857Y-105332190D01*
X197575904Y-105332190D01*
X199004476Y-105141714D02*
X199004476Y-105808380D01*
X198766380Y-104760761D02*
X198528285Y-105475047D01*
X199147333Y-105475047D01*
%TO.C,J3*%
X195246666Y-88352380D02*
X195246666Y-89066666D01*
X195199047Y-89209523D01*
X195103809Y-89304761D01*
X194960952Y-89352380D01*
X194865714Y-89352380D01*
X195627619Y-88352380D02*
X196246666Y-88352380D01*
X195913333Y-88733333D01*
X196056190Y-88733333D01*
X196151428Y-88780952D01*
X196199047Y-88828571D01*
X196246666Y-88923809D01*
X196246666Y-89161904D01*
X196199047Y-89257142D01*
X196151428Y-89304761D01*
X196056190Y-89352380D01*
X195770476Y-89352380D01*
X195675238Y-89304761D01*
X195627619Y-89257142D01*
%TO.C,D1*%
X179372380Y-107921095D02*
X178372380Y-107921095D01*
X178372380Y-107683000D01*
X178420000Y-107540142D01*
X178515238Y-107444904D01*
X178610476Y-107397285D01*
X178800952Y-107349666D01*
X178943809Y-107349666D01*
X179134285Y-107397285D01*
X179229523Y-107444904D01*
X179324761Y-107540142D01*
X179372380Y-107683000D01*
X179372380Y-107921095D01*
X179372380Y-106397285D02*
X179372380Y-106968714D01*
X179372380Y-106683000D02*
X178372380Y-106683000D01*
X178515238Y-106778238D01*
X178610476Y-106873476D01*
X178658095Y-106968714D01*
X187292380Y-110444904D02*
X186292380Y-110444904D01*
X186292380Y-110063952D01*
X186340000Y-109968714D01*
X186387619Y-109921095D01*
X186482857Y-109873476D01*
X186625714Y-109873476D01*
X186720952Y-109921095D01*
X186768571Y-109968714D01*
X186816190Y-110063952D01*
X186816190Y-110444904D01*
X187292380Y-109444904D02*
X186292380Y-109444904D01*
X187197142Y-108397285D02*
X187244761Y-108444904D01*
X187292380Y-108587761D01*
X187292380Y-108683000D01*
X187244761Y-108825857D01*
X187149523Y-108921095D01*
X187054285Y-108968714D01*
X186863809Y-109016333D01*
X186720952Y-109016333D01*
X186530476Y-108968714D01*
X186435238Y-108921095D01*
X186340000Y-108825857D01*
X186292380Y-108683000D01*
X186292380Y-108587761D01*
X186340000Y-108444904D01*
X186387619Y-108397285D01*
X186292380Y-107778238D02*
X186292380Y-107587761D01*
X186340000Y-107492523D01*
X186435238Y-107397285D01*
X186625714Y-107349666D01*
X186959047Y-107349666D01*
X187149523Y-107397285D01*
X187244761Y-107492523D01*
X187292380Y-107587761D01*
X187292380Y-107778238D01*
X187244761Y-107873476D01*
X187149523Y-107968714D01*
X186959047Y-108016333D01*
X186625714Y-108016333D01*
X186435238Y-107968714D01*
X186340000Y-107873476D01*
X186292380Y-107778238D01*
X187387619Y-107159190D02*
X187387619Y-106397285D01*
X187292380Y-105683000D02*
X187292380Y-106159190D01*
X186292380Y-106159190D01*
X186768571Y-105349666D02*
X186768571Y-105016333D01*
X187292380Y-104873476D02*
X187292380Y-105349666D01*
X186292380Y-105349666D01*
X186292380Y-104873476D01*
X187292380Y-104444904D02*
X186292380Y-104444904D01*
X186292380Y-104206809D01*
X186340000Y-104063952D01*
X186435238Y-103968714D01*
X186530476Y-103921095D01*
X186720952Y-103873476D01*
X186863809Y-103873476D01*
X187054285Y-103921095D01*
X187149523Y-103968714D01*
X187244761Y-104063952D01*
X187292380Y-104206809D01*
X187292380Y-104444904D01*
%TO.C,R12*%
X136517142Y-77160380D02*
X136183809Y-76684190D01*
X135945714Y-77160380D02*
X135945714Y-76160380D01*
X136326666Y-76160380D01*
X136421904Y-76208000D01*
X136469523Y-76255619D01*
X136517142Y-76350857D01*
X136517142Y-76493714D01*
X136469523Y-76588952D01*
X136421904Y-76636571D01*
X136326666Y-76684190D01*
X135945714Y-76684190D01*
X137469523Y-77160380D02*
X136898095Y-77160380D01*
X137183809Y-77160380D02*
X137183809Y-76160380D01*
X137088571Y-76303238D01*
X136993333Y-76398476D01*
X136898095Y-76446095D01*
X137850476Y-76255619D02*
X137898095Y-76208000D01*
X137993333Y-76160380D01*
X138231428Y-76160380D01*
X138326666Y-76208000D01*
X138374285Y-76255619D01*
X138421904Y-76350857D01*
X138421904Y-76446095D01*
X138374285Y-76588952D01*
X137802857Y-77160380D01*
X138421904Y-77160380D01*
%TO.C,SW2*%
X168874761Y-88709333D02*
X168922380Y-88566476D01*
X168922380Y-88328380D01*
X168874761Y-88233142D01*
X168827142Y-88185523D01*
X168731904Y-88137904D01*
X168636666Y-88137904D01*
X168541428Y-88185523D01*
X168493809Y-88233142D01*
X168446190Y-88328380D01*
X168398571Y-88518857D01*
X168350952Y-88614095D01*
X168303333Y-88661714D01*
X168208095Y-88709333D01*
X168112857Y-88709333D01*
X168017619Y-88661714D01*
X167970000Y-88614095D01*
X167922380Y-88518857D01*
X167922380Y-88280761D01*
X167970000Y-88137904D01*
X167922380Y-87804571D02*
X168922380Y-87566476D01*
X168208095Y-87376000D01*
X168922380Y-87185523D01*
X167922380Y-86947428D01*
X168017619Y-86614095D02*
X167970000Y-86566476D01*
X167922380Y-86471238D01*
X167922380Y-86233142D01*
X167970000Y-86137904D01*
X168017619Y-86090285D01*
X168112857Y-86042666D01*
X168208095Y-86042666D01*
X168350952Y-86090285D01*
X168922380Y-86661714D01*
X168922380Y-86042666D01*
%TO.C,D2*%
X179372380Y-77959095D02*
X178372380Y-77959095D01*
X178372380Y-77721000D01*
X178420000Y-77578142D01*
X178515238Y-77482904D01*
X178610476Y-77435285D01*
X178800952Y-77387666D01*
X178943809Y-77387666D01*
X179134285Y-77435285D01*
X179229523Y-77482904D01*
X179324761Y-77578142D01*
X179372380Y-77721000D01*
X179372380Y-77959095D01*
X178467619Y-77006714D02*
X178420000Y-76959095D01*
X178372380Y-76863857D01*
X178372380Y-76625761D01*
X178420000Y-76530523D01*
X178467619Y-76482904D01*
X178562857Y-76435285D01*
X178658095Y-76435285D01*
X178800952Y-76482904D01*
X179372380Y-77054333D01*
X179372380Y-76435285D01*
X187292380Y-82268619D02*
X186292380Y-82268619D01*
X187006666Y-81935285D01*
X186292380Y-81601952D01*
X187292380Y-81601952D01*
X187197142Y-80554333D02*
X187244761Y-80601952D01*
X187292380Y-80744809D01*
X187292380Y-80840047D01*
X187244761Y-80982904D01*
X187149523Y-81078142D01*
X187054285Y-81125761D01*
X186863809Y-81173380D01*
X186720952Y-81173380D01*
X186530476Y-81125761D01*
X186435238Y-81078142D01*
X186340000Y-80982904D01*
X186292380Y-80840047D01*
X186292380Y-80744809D01*
X186340000Y-80601952D01*
X186387619Y-80554333D01*
X186292380Y-80125761D02*
X187101904Y-80125761D01*
X187197142Y-80078142D01*
X187244761Y-80030523D01*
X187292380Y-79935285D01*
X187292380Y-79744809D01*
X187244761Y-79649571D01*
X187197142Y-79601952D01*
X187101904Y-79554333D01*
X186292380Y-79554333D01*
X187387619Y-79316238D02*
X187387619Y-78554333D01*
X187292380Y-78316238D02*
X186292380Y-78316238D01*
X186292380Y-77935285D01*
X186340000Y-77840047D01*
X186387619Y-77792428D01*
X186482857Y-77744809D01*
X186625714Y-77744809D01*
X186720952Y-77792428D01*
X186768571Y-77840047D01*
X186816190Y-77935285D01*
X186816190Y-78316238D01*
X186292380Y-77411476D02*
X187292380Y-77173380D01*
X186578095Y-76982904D01*
X187292380Y-76792428D01*
X186292380Y-76554333D01*
X187292380Y-75601952D02*
X186816190Y-75935285D01*
X187292380Y-76173380D02*
X186292380Y-76173380D01*
X186292380Y-75792428D01*
X186340000Y-75697190D01*
X186387619Y-75649571D01*
X186482857Y-75601952D01*
X186625714Y-75601952D01*
X186720952Y-75649571D01*
X186768571Y-75697190D01*
X186816190Y-75792428D01*
X186816190Y-76173380D01*
X187387619Y-75411476D02*
X187387619Y-74649571D01*
X187292380Y-73935285D02*
X187292380Y-74411476D01*
X186292380Y-74411476D01*
X186768571Y-73601952D02*
X186768571Y-73268619D01*
X187292380Y-73125761D02*
X187292380Y-73601952D01*
X186292380Y-73601952D01*
X186292380Y-73125761D01*
X187292380Y-72697190D02*
X186292380Y-72697190D01*
X186292380Y-72459095D01*
X186340000Y-72316238D01*
X186435238Y-72221000D01*
X186530476Y-72173380D01*
X186720952Y-72125761D01*
X186863809Y-72125761D01*
X187054285Y-72173380D01*
X187149523Y-72221000D01*
X187244761Y-72316238D01*
X187292380Y-72459095D01*
X187292380Y-72697190D01*
%TO.C,D3*%
X179372380Y-89135095D02*
X178372380Y-89135095D01*
X178372380Y-88897000D01*
X178420000Y-88754142D01*
X178515238Y-88658904D01*
X178610476Y-88611285D01*
X178800952Y-88563666D01*
X178943809Y-88563666D01*
X179134285Y-88611285D01*
X179229523Y-88658904D01*
X179324761Y-88754142D01*
X179372380Y-88897000D01*
X179372380Y-89135095D01*
X178372380Y-88230333D02*
X178372380Y-87611285D01*
X178753333Y-87944619D01*
X178753333Y-87801761D01*
X178800952Y-87706523D01*
X178848571Y-87658904D01*
X178943809Y-87611285D01*
X179181904Y-87611285D01*
X179277142Y-87658904D01*
X179324761Y-87706523D01*
X179372380Y-87801761D01*
X179372380Y-88087476D01*
X179324761Y-88182714D01*
X179277142Y-88230333D01*
X186872571Y-91796761D02*
X186872571Y-91463428D01*
X187396380Y-91320571D02*
X187396380Y-91796761D01*
X186396380Y-91796761D01*
X186396380Y-91320571D01*
X187348761Y-90939619D02*
X187396380Y-90796761D01*
X187396380Y-90558666D01*
X187348761Y-90463428D01*
X187301142Y-90415809D01*
X187205904Y-90368190D01*
X187110666Y-90368190D01*
X187015428Y-90415809D01*
X186967809Y-90463428D01*
X186920190Y-90558666D01*
X186872571Y-90749142D01*
X186824952Y-90844380D01*
X186777333Y-90892000D01*
X186682095Y-90939619D01*
X186586857Y-90939619D01*
X186491619Y-90892000D01*
X186444000Y-90844380D01*
X186396380Y-90749142D01*
X186396380Y-90511047D01*
X186444000Y-90368190D01*
X187396380Y-89939619D02*
X186396380Y-89939619D01*
X186396380Y-89558666D01*
X186444000Y-89463428D01*
X186491619Y-89415809D01*
X186586857Y-89368190D01*
X186729714Y-89368190D01*
X186824952Y-89415809D01*
X186872571Y-89463428D01*
X186920190Y-89558666D01*
X186920190Y-89939619D01*
X187491619Y-89177714D02*
X187491619Y-88415809D01*
X187396380Y-87701523D02*
X187396380Y-88177714D01*
X186396380Y-88177714D01*
X186872571Y-87368190D02*
X186872571Y-87034857D01*
X187396380Y-86892000D02*
X187396380Y-87368190D01*
X186396380Y-87368190D01*
X186396380Y-86892000D01*
X187396380Y-86463428D02*
X186396380Y-86463428D01*
X186396380Y-86225333D01*
X186444000Y-86082476D01*
X186539238Y-85987238D01*
X186634476Y-85939619D01*
X186824952Y-85892000D01*
X186967809Y-85892000D01*
X187158285Y-85939619D01*
X187253523Y-85987238D01*
X187348761Y-86082476D01*
X187396380Y-86225333D01*
X187396380Y-86463428D01*
X187396380Y-84939619D02*
X187396380Y-85511047D01*
X187396380Y-85225333D02*
X186396380Y-85225333D01*
X186539238Y-85320571D01*
X186634476Y-85415809D01*
X186682095Y-85511047D01*
%TO.C,C4*%
X168997333Y-98909142D02*
X168949714Y-98956761D01*
X168806857Y-99004380D01*
X168711619Y-99004380D01*
X168568761Y-98956761D01*
X168473523Y-98861523D01*
X168425904Y-98766285D01*
X168378285Y-98575809D01*
X168378285Y-98432952D01*
X168425904Y-98242476D01*
X168473523Y-98147238D01*
X168568761Y-98052000D01*
X168711619Y-98004380D01*
X168806857Y-98004380D01*
X168949714Y-98052000D01*
X168997333Y-98099619D01*
X169854476Y-98337714D02*
X169854476Y-99004380D01*
X169616380Y-97956761D02*
X169378285Y-98671047D01*
X169997333Y-98671047D01*
D11*
%TO.C,J6*%
X129734000Y-86883000D02*
X132394000Y-86883000D01*
X129734000Y-86883000D02*
X129734000Y-102183000D01*
X129734000Y-84283000D02*
X131064000Y-84283000D01*
X129734000Y-102183000D02*
X132394000Y-102183000D01*
X129734000Y-85613000D02*
X129734000Y-84283000D01*
X132394000Y-86883000D02*
X132394000Y-102183000D01*
%TO.C,SW1*%
X196033000Y-61662000D02*
X196033000Y-64322000D01*
X199903000Y-61662000D02*
X201233000Y-61662000D01*
X198633000Y-61662000D02*
X196033000Y-61662000D01*
X198633000Y-61662000D02*
X198633000Y-64322000D01*
X198633000Y-64322000D02*
X196033000Y-64322000D01*
X201233000Y-61662000D02*
X201233000Y-62992000D01*
%TO.C,J2*%
X137957000Y-106351000D02*
X135297000Y-106351000D01*
X136627000Y-114091000D02*
X135297000Y-114091000D01*
X137957000Y-111491000D02*
X137957000Y-106351000D01*
X135297000Y-111491000D02*
X135297000Y-106351000D01*
X135297000Y-114091000D02*
X135297000Y-112761000D01*
X137957000Y-111491000D02*
X135297000Y-111491000D01*
%TO.C,SW3*%
X196330000Y-92512000D02*
X194830000Y-92512000D01*
X194830000Y-99512000D02*
X196330000Y-99512000D01*
X198830000Y-98262000D02*
X198830000Y-93762000D01*
X192330000Y-93762000D02*
X192330000Y-98262000D01*
%TO.C,R11*%
X136250000Y-81017064D02*
X136250000Y-79562936D01*
X138070000Y-81017064D02*
X138070000Y-79562936D01*
%TO.C,U2*%
X174193200Y-70180200D02*
X170230800Y-70180200D01*
X170230800Y-77139800D02*
X174193200Y-77139800D01*
X174193200Y-77139800D02*
X174193200Y-70180200D01*
X170230800Y-70180200D02*
X170230800Y-77139800D01*
X175983900Y-78282800D02*
G75*
G03*
X175983900Y-78282800I-127000J0D01*
G01*
%TO.C,J9*%
X170140000Y-111252000D02*
X170140000Y-109922000D01*
X172740000Y-112582000D02*
X175340000Y-112582000D01*
X175340000Y-112582000D02*
X175340000Y-109922000D01*
X172740000Y-112582000D02*
X172740000Y-109922000D01*
X170140000Y-109922000D02*
X171470000Y-109922000D01*
X172740000Y-109922000D02*
X175340000Y-109922000D01*
%TO.C,J1*%
X132394000Y-77978000D02*
X129734000Y-77978000D01*
X132394000Y-77978000D02*
X132394000Y-70298000D01*
X131064000Y-80578000D02*
X129734000Y-80578000D01*
X129734000Y-77978000D02*
X129734000Y-70298000D01*
X132394000Y-70298000D02*
X129734000Y-70298000D01*
X129734000Y-80578000D02*
X129734000Y-79248000D01*
%TO.C,R5*%
X195291064Y-109622000D02*
X193836936Y-109622000D01*
X195291064Y-107802000D02*
X193836936Y-107802000D01*
%TO.C,R3*%
X173447064Y-100182000D02*
X171992936Y-100182000D01*
X173447064Y-102002000D02*
X171992936Y-102002000D01*
%TO.C,J5*%
X175250000Y-64347000D02*
X167570000Y-64347000D01*
X177850000Y-64347000D02*
X176520000Y-64347000D01*
X167570000Y-61687000D02*
X167570000Y-64347000D01*
X175250000Y-61687000D02*
X167570000Y-61687000D01*
X175250000Y-61687000D02*
X175250000Y-64347000D01*
X177850000Y-63017000D02*
X177850000Y-64347000D01*
%TO.C,J7*%
X129734000Y-64262000D02*
X132394000Y-64262000D01*
X129734000Y-66862000D02*
X132394000Y-66862000D01*
X131064000Y-61662000D02*
X132394000Y-61662000D01*
X129734000Y-64262000D02*
X129734000Y-66862000D01*
X132394000Y-61662000D02*
X132394000Y-62992000D01*
X132394000Y-64262000D02*
X132394000Y-66862000D01*
%TO.C,R2*%
X173421064Y-107082000D02*
X171966936Y-107082000D01*
X173421064Y-105262000D02*
X171966936Y-105262000D01*
%TO.C,J8*%
X135347000Y-64262000D02*
X138007000Y-64262000D01*
X136677000Y-61662000D02*
X138007000Y-61662000D01*
X135347000Y-66862000D02*
X138007000Y-66862000D01*
X135347000Y-64262000D02*
X135347000Y-66862000D01*
X138007000Y-61662000D02*
X138007000Y-62992000D01*
X138007000Y-64262000D02*
X138007000Y-66862000D01*
%TO.C,R1*%
X173447064Y-104542000D02*
X171992936Y-104542000D01*
X173447064Y-102722000D02*
X171992936Y-102722000D01*
%TO.C,D4*%
X181335000Y-100609000D02*
X184425000Y-100609000D01*
X182880462Y-95059000D02*
G75*
G03*
X181335170Y-100609000I-462J-2990000D01*
G01*
X184424830Y-100609000D02*
G75*
G03*
X182879538Y-95059000I-1544830J2560000D01*
G01*
X185380000Y-98049000D02*
G75*
G03*
X185380000Y-98049000I-2500000J0D01*
G01*
%TO.C,J10*%
X198314000Y-70866000D02*
X198314000Y-73466000D01*
X198314000Y-70866000D02*
X200974000Y-70866000D01*
X199644000Y-68266000D02*
X200974000Y-68266000D01*
X200974000Y-68266000D02*
X200974000Y-69596000D01*
X200974000Y-70866000D02*
X200974000Y-73466000D01*
X198314000Y-73466000D02*
X200974000Y-73466000D01*
%TO.C,J4*%
X184922000Y-64297000D02*
X184922000Y-61637000D01*
X192602000Y-64297000D02*
X192602000Y-61637000D01*
X182322000Y-61637000D02*
X183652000Y-61637000D01*
X184922000Y-64297000D02*
X192602000Y-64297000D01*
X184922000Y-61637000D02*
X192602000Y-61637000D01*
X182322000Y-62967000D02*
X182322000Y-61637000D01*
%TO.C,U1*%
X148579780Y-112287030D02*
X141622720Y-112287030D01*
X151119780Y-112287030D02*
X150845460Y-112287030D01*
X162882520Y-106841270D02*
X162882520Y-107115590D01*
X141622720Y-104575590D02*
X141622720Y-104301270D01*
X162882520Y-68741270D02*
X162882520Y-69015590D01*
X141622720Y-107115590D02*
X141622720Y-106841270D01*
X162882520Y-91601270D02*
X162882520Y-91875590D01*
X153659780Y-112287030D02*
X153385460Y-112287030D01*
X148125120Y-61029830D02*
X148125120Y-59734430D01*
X162882520Y-112287030D02*
X155925460Y-112287030D01*
X141622720Y-84255590D02*
X141622720Y-83981270D01*
X162882520Y-111921270D02*
X162882520Y-112287030D01*
X162882520Y-76361270D02*
X162882520Y-76635590D01*
X141622720Y-112287030D02*
X141622720Y-111921270D01*
X141622720Y-102035590D02*
X141622720Y-101761270D01*
X162882520Y-78901270D02*
X162882520Y-79175590D01*
X156380120Y-61029830D02*
X162882520Y-61029830D01*
X162882520Y-73821270D02*
X162882520Y-74095590D01*
X162882520Y-96681270D02*
X162882520Y-96955590D01*
X141622720Y-76635590D02*
X141622720Y-76361270D01*
X162882520Y-63661270D02*
X162882520Y-63935590D01*
X162882520Y-86521270D02*
X162882520Y-86795590D01*
X141622720Y-74095590D02*
X141622720Y-73821270D01*
X162882520Y-61029830D02*
X162882520Y-61395590D01*
X162882520Y-104301270D02*
X162882520Y-104575590D01*
X148125120Y-59734430D02*
X156380120Y-59734430D01*
X141622720Y-91875590D02*
X141622720Y-91601270D01*
X141622720Y-99495590D02*
X141622720Y-99221270D01*
X162882520Y-81441270D02*
X162882520Y-81715590D01*
X141622720Y-96955590D02*
X141622720Y-96681270D01*
X141622720Y-94415590D02*
X141622720Y-94141270D01*
X141622720Y-81715590D02*
X141622720Y-81441270D01*
X141622720Y-63935590D02*
X141622720Y-63661270D01*
X162882520Y-66201270D02*
X162882520Y-66475590D01*
X141622720Y-79175590D02*
X141622720Y-78901270D01*
X141622720Y-69015590D02*
X141622720Y-68741270D01*
X156380120Y-59734430D02*
X156380120Y-61029830D01*
X162882520Y-101761270D02*
X162882520Y-102035590D01*
X162882520Y-94141270D02*
X162882520Y-94415590D01*
X141622720Y-89335590D02*
X141622720Y-89061270D01*
X141622720Y-109655590D02*
X141622720Y-109381270D01*
X162882520Y-109381270D02*
X162882520Y-109655590D01*
X162882520Y-89061270D02*
X162882520Y-89335590D01*
X141622720Y-66475590D02*
X141622720Y-66201270D01*
X141622720Y-71555590D02*
X141622720Y-71281270D01*
X162882520Y-99221270D02*
X162882520Y-99495590D01*
X162882520Y-83981270D02*
X162882520Y-84255590D01*
X141622720Y-61029830D02*
X148125120Y-61029830D01*
X141622720Y-61395590D02*
X141622720Y-61029830D01*
X162882520Y-71281270D02*
X162882520Y-71555590D01*
X141622720Y-86795590D02*
X141622720Y-86521270D01*
X138117520Y-62528430D02*
G75*
G03*
X138117520Y-62528430I-127000J0D01*
G01*
%TO.C,R6*%
X195291064Y-113178000D02*
X193836936Y-113178000D01*
X195291064Y-111358000D02*
X193836936Y-111358000D01*
%TO.C,R4*%
X195291064Y-104246000D02*
X193836936Y-104246000D01*
X195291064Y-106066000D02*
X193836936Y-106066000D01*
%TO.C,J3*%
X195560000Y-84826000D02*
X192960000Y-84826000D01*
X192960000Y-84826000D02*
X192960000Y-77146000D01*
X192960000Y-87426000D02*
X192960000Y-86096000D01*
X195560000Y-87426000D02*
X195560000Y-84826000D01*
X194290000Y-87426000D02*
X192960000Y-87426000D01*
X198160000Y-77146000D02*
X192960000Y-77146000D01*
X198160000Y-87426000D02*
X195560000Y-87426000D01*
X198160000Y-87426000D02*
X198160000Y-77146000D01*
%TO.C,D1*%
X181335000Y-109743000D02*
X181800000Y-109743000D01*
X183960000Y-109743000D02*
X184425000Y-109743000D01*
X183960000Y-109437684D02*
G75*
G03*
X183960429Y-104928521I-1080000J2254684D01*
G01*
X181799571Y-104928521D02*
G75*
G03*
X181800000Y-109437684I1080429J-2254479D01*
G01*
X184424830Y-109743000D02*
G75*
G03*
X183960827Y-104395185I-1544830J2560000D01*
G01*
X181799173Y-104395185D02*
G75*
G03*
X181335170Y-109743000I1080827J-2787815D01*
G01*
%TO.C,R12*%
X138070000Y-74361064D02*
X138070000Y-72906936D01*
X136250000Y-74361064D02*
X136250000Y-72906936D01*
%TO.C,SW2*%
X175970000Y-89626000D02*
X175970000Y-85126000D01*
X169470000Y-85126000D02*
X169470000Y-89626000D01*
X173470000Y-83876000D02*
X171970000Y-83876000D01*
X171970000Y-90876000D02*
X173470000Y-90876000D01*
%TO.C,D2*%
X181335000Y-79781000D02*
X184425000Y-79781000D01*
X182880462Y-74231000D02*
G75*
G03*
X181335170Y-79781000I-462J-2990000D01*
G01*
X184424830Y-79781000D02*
G75*
G03*
X182879538Y-74231000I-1544830J2560000D01*
G01*
X185380000Y-77221000D02*
G75*
G03*
X185380000Y-77221000I-2500000J0D01*
G01*
%TO.C,D3*%
X181335000Y-90957000D02*
X184425000Y-90957000D01*
X182880462Y-85407000D02*
G75*
G03*
X181335170Y-90957000I-462J-2990000D01*
G01*
X184424830Y-90957000D02*
G75*
G03*
X182879538Y-85407000I-1544830J2560000D01*
G01*
X185380000Y-88397000D02*
G75*
G03*
X185380000Y-88397000I-2500000J0D01*
G01*
%TO.C,C4*%
X172008748Y-97642000D02*
X173431252Y-97642000D01*
X172008748Y-99462000D02*
X173431252Y-99462000D01*
%TD*%
M02*
