%TF.GenerationSoftware,KiCad,Pcbnew,(6.0.5)*%
%TF.CreationDate,2023-02-27T08:13:59-05:00*%
%TF.ProjectId,UGV_Board,5547565f-426f-4617-9264-2e6b69636164,rev?*%
%TF.SameCoordinates,Original*%
%TF.FileFunction,Copper,L2,Bot*%
%TF.FilePolarity,Positive*%
%FSLAX46Y46*%
G04 Gerber Fmt 4.6, Leading zero omitted, Abs format (unit mm)*
G04 Created by KiCad (PCBNEW (6.0.5)) date 2023-02-27 08:13:59*
%MOMM*%
%LPD*%
G01*
G04 APERTURE LIST*
%TA.AperFunction,ComponentPad*%
%ADD10R,1.700000X1.700000*%
%TD*%
%TA.AperFunction,ComponentPad*%
%ADD11O,1.700000X1.700000*%
%TD*%
%TA.AperFunction,ComponentPad*%
%ADD12C,2.000000*%
%TD*%
%TA.AperFunction,ComponentPad*%
%ADD13R,1.800000X1.800000*%
%TD*%
%TA.AperFunction,ComponentPad*%
%ADD14C,1.800000*%
%TD*%
%TA.AperFunction,ComponentPad*%
%ADD15R,1.800000X1.070000*%
%TD*%
%TA.AperFunction,ComponentPad*%
%ADD16O,1.800000X1.070000*%
%TD*%
%TA.AperFunction,ViaPad*%
%ADD17C,0.800000*%
%TD*%
%TA.AperFunction,Conductor*%
%ADD18C,0.250000*%
%TD*%
G04 APERTURE END LIST*
D10*
%TO.P,J6,1,Pin_1*%
%TO.N,ESP_3.3V*%
X131064000Y-85613000D03*
D11*
%TO.P,J6,2,Pin_2*%
%TO.N,ESP_GND*%
X131064000Y-88153000D03*
%TO.P,J6,3,Pin_3*%
%TO.N,SCL*%
X131064000Y-90693000D03*
%TO.P,J6,4,Pin_4*%
%TO.N,SDA*%
X131064000Y-93233000D03*
%TO.P,J6,5,Pin_5*%
%TO.N,CSB*%
X131064000Y-95773000D03*
%TO.P,J6,6,Pin_6*%
%TO.N,INT1*%
X131064000Y-98313000D03*
%TO.P,J6,7,Pin_7*%
%TO.N,INT2*%
X131064000Y-100853000D03*
%TD*%
D10*
%TO.P,SW1,1,A*%
%TO.N,Net-(SW1-Pad1)*%
X199903000Y-62992000D03*
D11*
%TO.P,SW1,2,B*%
%TO.N,ESP_3.3V*%
X197363000Y-62992000D03*
%TD*%
D10*
%TO.P,J2,1,Pin_1*%
%TO.N,Net-(J2-Pad1)*%
X136627000Y-112761000D03*
D11*
%TO.P,J2,2,Pin_2*%
%TO.N,Net-(J2-Pad2)*%
X136627000Y-110221000D03*
%TO.P,J2,3,Pin_3*%
%TO.N,Net-(J2-Pad3)*%
X136627000Y-107681000D03*
%TD*%
D12*
%TO.P,SW3,1,1*%
%TO.N,ESP_GND*%
X197830000Y-92762000D03*
X197830000Y-99262000D03*
%TO.P,SW3,2,2*%
%TO.N,ESP_RST*%
X193330000Y-92762000D03*
X193330000Y-99262000D03*
%TD*%
D10*
%TO.P,J9,1,Pin_1*%
%TO.N,ESP_GND*%
X171470000Y-111252000D03*
D11*
%TO.P,J9,2,Pin_2*%
%TO.N,+7.5V*%
X174010000Y-111252000D03*
%TD*%
D10*
%TO.P,J1,1,Pin_1*%
%TO.N,ESP_GND*%
X131064000Y-79248000D03*
D11*
%TO.P,J1,2,Pin_2*%
%TO.N,SCL*%
X131064000Y-76708000D03*
%TO.P,J1,3,Pin_3*%
%TO.N,SDA*%
X131064000Y-74168000D03*
%TO.P,J1,4,Pin_4*%
%TO.N,ESP_3.3V*%
X131064000Y-71628000D03*
%TD*%
D10*
%TO.P,J5,1,Pin_1*%
%TO.N,ESP_GND*%
X176520000Y-63017000D03*
D11*
%TO.P,J5,2,Pin_2*%
%TO.N,ENCLA_SIG*%
X173980000Y-63017000D03*
%TO.P,J5,3,Pin_3*%
%TO.N,ENCLB_SIG*%
X171440000Y-63017000D03*
%TO.P,J5,4,Pin_4*%
%TO.N,ESP_3.3V*%
X168900000Y-63017000D03*
%TD*%
D10*
%TO.P,J7,1,Pin_1*%
%TO.N,MOTORLB_SIG*%
X131064000Y-62992000D03*
D11*
%TO.P,J7,2,Pin_2*%
%TO.N,MOTORLA_SIG*%
X131064000Y-65532000D03*
%TD*%
D10*
%TO.P,J8,1,Pin_1*%
%TO.N,MOTORRB_SIG*%
X136677000Y-62992000D03*
D11*
%TO.P,J8,2,Pin_2*%
%TO.N,MOTORRA_SIG*%
X136677000Y-65532000D03*
%TD*%
D13*
%TO.P,D4,1,K*%
%TO.N,Net-(D4-Pad1)*%
X182880000Y-99319000D03*
D14*
%TO.P,D4,2,A*%
%TO.N,ESP_GPIO0*%
X182880000Y-96779000D03*
%TD*%
D10*
%TO.P,J10,1,Pin_1*%
%TO.N,+7.5V*%
X199644000Y-69596000D03*
D11*
%TO.P,J10,2,Pin_2*%
%TO.N,ESP_GND*%
X199644000Y-72136000D03*
%TD*%
D10*
%TO.P,J4,1,Pin_1*%
%TO.N,ESP_GND*%
X183652000Y-62967000D03*
D11*
%TO.P,J4,2,Pin_2*%
%TO.N,ENCRA_SIG*%
X186192000Y-62967000D03*
%TO.P,J4,3,Pin_3*%
%TO.N,ENCRB_SIG*%
X188732000Y-62967000D03*
%TO.P,J4,4,Pin_4*%
%TO.N,ESP_3.3V*%
X191272000Y-62967000D03*
%TD*%
D10*
%TO.P,J3,1,Pin_1*%
%TO.N,ESP_GND*%
X194290000Y-86096000D03*
D11*
%TO.P,J3,2,Pin_2*%
%TO.N,ESP_TX*%
X196830000Y-86096000D03*
%TO.P,J3,3,Pin_3*%
%TO.N,ESP_GPIO2*%
X194290000Y-83556000D03*
%TO.P,J3,4,Pin_4*%
%TO.N,ESP_EN*%
X196830000Y-83556000D03*
%TO.P,J3,5,Pin_5*%
%TO.N,ESP_GPIO0*%
X194290000Y-81016000D03*
%TO.P,J3,6,Pin_6*%
%TO.N,ESP_RST*%
X196830000Y-81016000D03*
%TO.P,J3,7,Pin_7*%
%TO.N,ESP_RX*%
X194290000Y-78476000D03*
%TO.P,J3,8,Pin_8*%
%TO.N,ESP_3.3V*%
X196830000Y-78476000D03*
%TD*%
D15*
%TO.P,D1,1,RA*%
%TO.N,Net-(D1-Pad1)*%
X182880000Y-109088000D03*
D16*
%TO.P,D1,2,GA*%
%TO.N,Net-(D1-Pad2)*%
X182880000Y-107818000D03*
%TO.P,D1,3,BA*%
%TO.N,Net-(D1-Pad3)*%
X182880000Y-106548000D03*
%TO.P,D1,4,K*%
%TO.N,ESP_GND*%
X182880000Y-105278000D03*
%TD*%
D12*
%TO.P,SW2,1,1*%
%TO.N,Net-(C4-Pad1)*%
X170470000Y-90626000D03*
X170470000Y-84126000D03*
%TO.P,SW2,2,2*%
%TO.N,ESP_GND*%
X174970000Y-90626000D03*
X174970000Y-84126000D03*
%TD*%
D13*
%TO.P,D2,1,K*%
%TO.N,Net-(D2-Pad1)*%
X182880000Y-78491000D03*
D14*
%TO.P,D2,2,A*%
%TO.N,ESP_3.3V*%
X182880000Y-75951000D03*
%TD*%
D13*
%TO.P,D3,1,K*%
%TO.N,Net-(D3-Pad1)*%
X182880000Y-89667000D03*
D14*
%TO.P,D3,2,A*%
%TO.N,ESP_GPIO2*%
X182880000Y-87127000D03*
%TD*%
D17*
%TO.N,ESP_TX*%
X139192000Y-65024000D03*
X169672000Y-68580000D03*
%TO.N,ESP_RX*%
X171196000Y-81788000D03*
X165608000Y-68580000D03*
X139192000Y-62484000D03*
%TO.N,MOTORLA_SIG*%
X139700000Y-95504000D03*
%TO.N,MOTORLB_SIG*%
X139700000Y-98044000D03*
%TO.N,ENCRB_SIG*%
X168656000Y-108204000D03*
%TO.N,ENCRA_SIG*%
X167132000Y-110744000D03*
%TO.N,ENCLB_SIG*%
X167095951Y-68616049D03*
%TD*%
D18*
%TO.N,+7.5V*%
X189948000Y-111252000D02*
X174010000Y-111252000D01*
X201400000Y-71352000D02*
X201400000Y-99800000D01*
X201400000Y-99800000D02*
X189948000Y-111252000D01*
X199644000Y-69596000D02*
X201400000Y-71352000D01*
%TO.N,ESP_3.3V*%
X132239000Y-72803000D02*
X132239000Y-84438000D01*
X191272000Y-62967000D02*
X190097000Y-61792000D01*
X131064000Y-71628000D02*
X132239000Y-72803000D01*
X170125000Y-61792000D02*
X168900000Y-63017000D01*
X132239000Y-84438000D02*
X131064000Y-85613000D01*
X190097000Y-61792000D02*
X170125000Y-61792000D01*
%TO.N,ESP_GPIO0*%
X182880000Y-96779000D02*
X182880000Y-92426000D01*
X182880000Y-92426000D02*
X194290000Y-81016000D01*
%TO.N,ESP_GND*%
X131064000Y-88153000D02*
X132239000Y-89328000D01*
X177444000Y-105278000D02*
X182880000Y-105278000D01*
X153924000Y-113792000D02*
X165608000Y-113792000D01*
X132239000Y-92107000D02*
X153924000Y-113792000D01*
X165608000Y-113792000D02*
X168148000Y-111252000D01*
X168148000Y-111252000D02*
X171470000Y-111252000D01*
X132239000Y-89328000D02*
X132239000Y-92107000D01*
X171470000Y-111252000D02*
X177444000Y-105278000D01*
%TO.N,ESP_TX*%
X169672000Y-68580000D02*
X168910951Y-69341049D01*
X168910951Y-69341049D02*
X143509049Y-69341049D01*
X143509049Y-69341049D02*
X139192000Y-65024000D01*
%TO.N,ESP_RX*%
X139192000Y-63500000D02*
X139192000Y-62484000D01*
X165608000Y-68580000D02*
X161036000Y-64008000D01*
X194290000Y-78476000D02*
X190978000Y-81788000D01*
X190978000Y-81788000D02*
X171196000Y-81788000D01*
X139700000Y-64008000D02*
X139192000Y-63500000D01*
X161036000Y-64008000D02*
X139700000Y-64008000D01*
%TO.N,MOTORLA_SIG*%
X131064000Y-65532000D02*
X139700000Y-74168000D01*
X139700000Y-74168000D02*
X139700000Y-95504000D01*
%TO.N,MOTORLB_SIG*%
X131064000Y-62992000D02*
X129889000Y-64167000D01*
X139250000Y-89408000D02*
X138975000Y-89683000D01*
X129889000Y-68791299D02*
X139250000Y-78152299D01*
X138975000Y-89683000D02*
X138975000Y-97319000D01*
X129889000Y-64167000D02*
X129889000Y-68791299D01*
X138975000Y-97319000D02*
X139700000Y-98044000D01*
X139250000Y-78152299D02*
X139250000Y-89408000D01*
%TO.N,ENCRB_SIG*%
X168656000Y-86360000D02*
X168656000Y-108204000D01*
X188732000Y-62967000D02*
X168656000Y-83043000D01*
X168656000Y-83043000D02*
X168656000Y-86360000D01*
%TO.N,ENCRA_SIG*%
X186192000Y-62967000D02*
X167132000Y-82027000D01*
X167132000Y-82027000D02*
X167132000Y-110744000D01*
%TO.N,ENCLB_SIG*%
X171440000Y-64272000D02*
X171440000Y-63017000D01*
X167095951Y-68616049D02*
X171440000Y-64272000D01*
%TD*%
M02*
