%TF.GenerationSoftware,KiCad,Pcbnew,(6.0.5)*%
%TF.CreationDate,2023-02-27T08:13:59-05:00*%
%TF.ProjectId,UGV_Board,5547565f-426f-4617-9264-2e6b69636164,rev?*%
%TF.SameCoordinates,Original*%
%TF.FileFunction,Soldermask,Top*%
%TF.FilePolarity,Negative*%
%FSLAX46Y46*%
G04 Gerber Fmt 4.6, Leading zero omitted, Abs format (unit mm)*
G04 Created by KiCad (PCBNEW (6.0.5)) date 2023-02-27 08:13:59*
%MOMM*%
%LPD*%
G01*
G04 APERTURE LIST*
G04 Aperture macros list*
%AMRoundRect*
0 Rectangle with rounded corners*
0 $1 Rounding radius*
0 $2 $3 $4 $5 $6 $7 $8 $9 X,Y pos of 4 corners*
0 Add a 4 corners polygon primitive as box body*
4,1,4,$2,$3,$4,$5,$6,$7,$8,$9,$2,$3,0*
0 Add four circle primitives for the rounded corners*
1,1,$1+$1,$2,$3*
1,1,$1+$1,$4,$5*
1,1,$1+$1,$6,$7*
1,1,$1+$1,$8,$9*
0 Add four rect primitives between the rounded corners*
20,1,$1+$1,$2,$3,$4,$5,0*
20,1,$1+$1,$4,$5,$6,$7,0*
20,1,$1+$1,$6,$7,$8,$9,0*
20,1,$1+$1,$8,$9,$2,$3,0*%
G04 Aperture macros list end*
%ADD10R,1.700000X1.700000*%
%ADD11O,1.700000X1.700000*%
%ADD12C,2.000000*%
%ADD13RoundRect,0.250000X0.625000X-0.400000X0.625000X0.400000X-0.625000X0.400000X-0.625000X-0.400000X0*%
%ADD14R,1.473200X0.889000*%
%ADD15R,1.473200X3.149600*%
%ADD16RoundRect,0.250000X0.400000X0.625000X-0.400000X0.625000X-0.400000X-0.625000X0.400000X-0.625000X0*%
%ADD17R,1.800000X1.800000*%
%ADD18C,1.800000*%
%ADD19R,3.200400X1.600200*%
%ADD20R,1.092200X1.803400*%
%ADD21R,1.041400X1.447800*%
%ADD22R,1.600200X3.200400*%
%ADD23R,1.498600X1.498600*%
%ADD24R,1.800000X1.070000*%
%ADD25O,1.800000X1.070000*%
%ADD26RoundRect,0.250000X-0.412500X-0.650000X0.412500X-0.650000X0.412500X0.650000X-0.412500X0.650000X0*%
G04 APERTURE END LIST*
D10*
%TO.C,J6*%
X131064000Y-85613000D03*
D11*
X131064000Y-88153000D03*
X131064000Y-90693000D03*
X131064000Y-93233000D03*
X131064000Y-95773000D03*
X131064000Y-98313000D03*
X131064000Y-100853000D03*
%TD*%
D10*
%TO.C,SW1*%
X199903000Y-62992000D03*
D11*
X197363000Y-62992000D03*
%TD*%
D10*
%TO.C,J2*%
X136627000Y-112761000D03*
D11*
X136627000Y-110221000D03*
X136627000Y-107681000D03*
%TD*%
D12*
%TO.C,SW3*%
X197830000Y-92762000D03*
X197830000Y-99262000D03*
X193330000Y-92762000D03*
X193330000Y-99262000D03*
%TD*%
D13*
%TO.C,R11*%
X137160000Y-81840000D03*
X137160000Y-78740000D03*
%TD*%
D14*
%TO.C,U2*%
X175475900Y-75971400D03*
X175475900Y-73660000D03*
X175475900Y-71348600D03*
D15*
X168948100Y-73660000D03*
%TD*%
D10*
%TO.C,J9*%
X171470000Y-111252000D03*
D11*
X174010000Y-111252000D03*
%TD*%
D10*
%TO.C,J1*%
X131064000Y-79248000D03*
D11*
X131064000Y-76708000D03*
X131064000Y-74168000D03*
X131064000Y-71628000D03*
%TD*%
D16*
%TO.C,R5*%
X196114000Y-108712000D03*
X193014000Y-108712000D03*
%TD*%
%TO.C,R3*%
X174270000Y-101092000D03*
X171170000Y-101092000D03*
%TD*%
D10*
%TO.C,J5*%
X176520000Y-63017000D03*
D11*
X173980000Y-63017000D03*
X171440000Y-63017000D03*
X168900000Y-63017000D03*
%TD*%
D10*
%TO.C,J7*%
X131064000Y-62992000D03*
D11*
X131064000Y-65532000D03*
%TD*%
D16*
%TO.C,R2*%
X174244000Y-106172000D03*
X171144000Y-106172000D03*
%TD*%
D10*
%TO.C,J8*%
X136677000Y-62992000D03*
D11*
X136677000Y-65532000D03*
%TD*%
D16*
%TO.C,R1*%
X174270000Y-103632000D03*
X171170000Y-103632000D03*
%TD*%
D17*
%TO.C,D4*%
X182880000Y-99319000D03*
D18*
X182880000Y-96779000D03*
%TD*%
D10*
%TO.C,J10*%
X199644000Y-69596000D03*
D11*
X199644000Y-72136000D03*
%TD*%
D10*
%TO.C,J4*%
X183652000Y-62967000D03*
D11*
X186192000Y-62967000D03*
X188732000Y-62967000D03*
X191272000Y-62967000D03*
%TD*%
D19*
%TO.C,U1*%
X142562520Y-62528430D03*
X142562520Y-65068430D03*
X142562520Y-67608430D03*
X142562520Y-70148430D03*
X142562520Y-72688430D03*
X142562520Y-75228430D03*
X142562520Y-77768430D03*
X142562520Y-80308430D03*
X142562520Y-82848430D03*
X142562520Y-85388430D03*
X142562520Y-87928430D03*
X142562520Y-90468430D03*
X142562520Y-93008430D03*
X142562520Y-95548430D03*
X142562520Y-98088430D03*
X142562520Y-100628430D03*
X142562520Y-103168430D03*
X142562520Y-105708430D03*
X142562520Y-108248430D03*
X142562520Y-110788430D03*
X161942720Y-110788430D03*
X161942720Y-108248430D03*
X161942720Y-105708430D03*
X161942720Y-103168430D03*
X161942720Y-100628430D03*
X161942720Y-98088430D03*
X161942720Y-95548430D03*
X161942720Y-93008430D03*
X161942720Y-90468430D03*
X161942720Y-87928430D03*
X161942720Y-85388430D03*
X161942720Y-82848430D03*
X161942720Y-80308430D03*
X161942720Y-77768430D03*
X161942720Y-75228430D03*
X161942720Y-72688430D03*
X161942720Y-70148430D03*
X161942720Y-67608430D03*
X161942720Y-65068430D03*
X161942720Y-62528430D03*
D20*
X149527200Y-62657970D03*
X154978040Y-62657970D03*
D21*
X149826920Y-65688190D03*
X154678320Y-65688190D03*
D22*
X149712620Y-111357390D03*
X152252620Y-111357390D03*
X154792620Y-111357390D03*
D23*
X152252620Y-65657710D03*
X153253380Y-62358250D03*
X151251860Y-62358250D03*
X149753260Y-69157830D03*
X149753260Y-71657190D03*
X149753260Y-74156550D03*
%TD*%
D16*
%TO.C,R6*%
X196114000Y-112268000D03*
X193014000Y-112268000D03*
%TD*%
%TO.C,R4*%
X196114000Y-105156000D03*
X193014000Y-105156000D03*
%TD*%
D10*
%TO.C,J3*%
X194290000Y-86096000D03*
D11*
X196830000Y-86096000D03*
X194290000Y-83556000D03*
X196830000Y-83556000D03*
X194290000Y-81016000D03*
X196830000Y-81016000D03*
X194290000Y-78476000D03*
X196830000Y-78476000D03*
%TD*%
D24*
%TO.C,D1*%
X182880000Y-109088000D03*
D25*
X182880000Y-107818000D03*
X182880000Y-106548000D03*
X182880000Y-105278000D03*
%TD*%
D13*
%TO.C,R12*%
X137160000Y-75184000D03*
X137160000Y-72084000D03*
%TD*%
D12*
%TO.C,SW2*%
X170470000Y-90626000D03*
X170470000Y-84126000D03*
X174970000Y-90626000D03*
X174970000Y-84126000D03*
%TD*%
D17*
%TO.C,D2*%
X182880000Y-78491000D03*
D18*
X182880000Y-75951000D03*
%TD*%
D17*
%TO.C,D3*%
X182880000Y-89667000D03*
D18*
X182880000Y-87127000D03*
%TD*%
D26*
%TO.C,C4*%
X171157500Y-98552000D03*
X174282500Y-98552000D03*
%TD*%
M02*
