M48
; DRILL file {KiCad (6.0.5)} date Mon Feb 27 08:14:01 2023
; FORMAT={-:-/ absolute / metric / decimal}
; #@! TF.CreationDate,2023-02-27T08:14:01-05:00
; #@! TF.GenerationSoftware,Kicad,Pcbnew,(6.0.5)
; #@! TF.FileFunction,MixedPlating,1,2
FMAT,2
METRIC
; #@! TA.AperFunction,Plated,PTH,ViaDrill
T1C0.400
; #@! TA.AperFunction,Plated,PTH,ComponentDrill
T2C0.900
; #@! TA.AperFunction,Plated,PTH,ComponentDrill
T3C1.000
; #@! TA.AperFunction,Plated,PTH,ComponentDrill
T4C1.100
%
G90
G05
T1
X139.192Y-62.484
X139.192Y-65.024
X139.7Y-95.504
X139.7Y-98.044
X165.608Y-68.58
X167.096Y-68.616
X167.132Y-110.744
X168.656Y-108.204
X169.672Y-68.58
X171.196Y-81.788
T2
X182.88Y-75.951
X182.88Y-78.491
X182.88Y-87.127
X182.88Y-89.667
X182.88Y-96.779
X182.88Y-99.319
X182.88Y-105.278
X182.88Y-106.548
X182.88Y-107.818
X182.88Y-109.088
T3
X131.064Y-62.992
X131.064Y-65.532
X131.064Y-71.628
X131.064Y-74.168
X131.064Y-76.708
X131.064Y-79.248
X131.064Y-85.613
X131.064Y-88.153
X131.064Y-90.693
X131.064Y-93.233
X131.064Y-95.773
X131.064Y-98.313
X131.064Y-100.853
X136.627Y-107.681
X136.627Y-110.221
X136.627Y-112.761
X136.677Y-62.992
X136.677Y-65.532
X168.9Y-63.017
X171.44Y-63.017
X171.47Y-111.252
X173.98Y-63.017
X174.01Y-111.252
X176.52Y-63.017
X183.652Y-62.967
X186.192Y-62.967
X188.732Y-62.967
X191.272Y-62.967
X194.29Y-78.476
X194.29Y-81.016
X194.29Y-83.556
X194.29Y-86.096
X196.83Y-78.476
X196.83Y-81.016
X196.83Y-83.556
X196.83Y-86.096
X197.363Y-62.992
X199.644Y-69.596
X199.644Y-72.136
X199.903Y-62.992
T4
X170.47Y-84.126
X170.47Y-90.626
X174.97Y-84.126
X174.97Y-90.626
X193.33Y-92.762
X193.33Y-99.262
X197.83Y-92.762
X197.83Y-99.262
T0
M30
